<svg width="60" height="70" viewBox="0 0 60 70" fill="none" xmlns="http://www.w3.org/2000/svg">
<g filter="url(#filter0_d_81_13678)">
<path fill-rule="evenodd" clip-rule="evenodd" d="M39.0815 0C45.105 0 48.116 0 51.3585 1.025C54.8985 2.3135 57.6865 5.1015 58.975 8.6415C60 11.8835 60 14.8955 60 20.9185V39.0815C60 45.105 60 48.116 58.975 51.3585C57.6865 54.8985 54.8985 57.6865 51.3585 58.9745C48.116 60 45.105 60 39.0815 60H20.9185C14.895 60 11.8835 60 8.6415 58.9745C5.1015 57.6865 2.3135 54.8985 1.025 51.3585C0 48.116 0 45.105 0 39.0815V20.9185C0 14.8955 0 11.8835 1.025 8.6415C2.3135 5.1015 5.1015 2.3135 8.6415 1.025C11.8835 0 14.895 0 20.9185 0H39.0815Z" fill="url(#paint0_linear_81_13678)"/>
<path fill-rule="evenodd" clip-rule="evenodd" d="M49.2591 42.9662C49.1768 42.9882 49.0903 43 49.0013 43H10.9987C10.9096 43 10.8231 42.9883 10.7408 42.9663L22.5882 31.1252L25.1038 33.7023C27.8061 36.4707 32.1937 36.4709 34.8962 33.7023L37.4118 31.1252L49.2591 42.9662ZM50 41.7018V18.2135C50 18.0937 49.9789 17.9787 49.9402 17.8722C49.8811 18.009 38.1102 30.1106 38.1102 30.1106L49.9661 41.9603C49.9882 41.8778 50 41.7912 50 41.7018ZM10 41.8016V18.3133C10 18.1935 10.0212 18.0787 10.06 17.9722C10.119 18.1089 21.8898 30.2105 21.8898 30.2105L10.0338 42.0602C10.0118 41.9777 10 41.891 10 41.8016ZM49.3074 17.019L34.1804 32.5036C31.8704 34.8701 28.1295 34.8699 25.8196 32.5036C25.8196 32.5036 15.7365 22.1821 10.695 17.0214C10.6493 16.9747 49.3074 17.019 49.3074 17.019Z" fill="white"/>
</g>
<defs>
<filter id="filter0_d_81_13678" x="-10" y="-10" width="80" height="80" filterUnits="userSpaceOnUse" color-interpolation-filters="sRGB">
<feFlood flood-opacity="0" result="BackgroundImageFix"/>
<feColorMatrix in="SourceAlpha" type="matrix" values="0 0 0 0 0 0 0 0 0 0 0 0 0 0 0 0 0 0 127 0" result="hardAlpha"/>
<feOffset/>
<feGaussianBlur stdDeviation="5"/>
<feColorMatrix type="matrix" values="0 0 0 0 0 0 0 0 0 0 0 0 0 0 0 0 0 0 0.1 0"/>
<feBlend mode="normal" in2="BackgroundImageFix" result="effect1_dropShadow_81_13678"/>
<feBlend mode="normal" in="SourceGraphic" in2="effect1_dropShadow_81_13678" result="shape"/>
</filter>
<linearGradient id="paint0_linear_81_13678" x1="0" y1="0" x2="0" y2="60" gradientUnits="userSpaceOnUse">
<stop stop-color="#1E51EE"/>
<stop offset="1" stop-color="#19E6FF"/>
</linearGradient>
</defs>
</svg>
