<?xml version="1.0" encoding="utf-8"?>
<!-- Generator: Adobe Illustrator 23.0.3, SVG Export Plug-In . SVG Version: 6.00 Build 0)  -->
<svg version="1.1" id="Layer_1" xmlns="http://www.w3.org/2000/svg" xmlns:xlink="http://www.w3.org/1999/xlink" x="0px" y="0px"
	 viewBox="0 0 60 60" style="enable-background:new 0 0 60 60;" xml:space="preserve">
<style type="text/css">
	.st0{fill-rule:evenodd;clip-rule:evenodd;fill:#FEFEFE;}
	.st1{fill-rule:evenodd;clip-rule:evenodd;fill:url(#SVGID_1_);}
	.st2{fill-rule:evenodd;clip-rule:evenodd;fill:#FFFFFF;}
</style>
<path class="st0" d="M39.1,0c6,0,9,0,12.3,1c3.5,1.3,6.3,4.1,7.6,7.6c1,3.2,1,6.3,1,12.3v18.2c0,6,0,9-1,12.3
	c-1.3,3.5-4.1,6.3-7.6,7.6c-3.2,1-6.3,1-12.3,1H20.9c-6,0-9,0-12.3-1c-3.5-1.3-6.3-4.1-7.6-7.6c-1-3.2-1-6.3-1-12.3V20.9
	c0-6,0-9,1-12.3C2.3,5.1,5.1,2.3,8.6,1c3.2-1,6.3-1,12.3-1H39.1z"/>
<radialGradient id="SVGID_1_" cx="-18.4587" cy="80.4702" r="1" gradientTransform="matrix(43.4136 0 0 -43.4136 819.1054 3543.2085)" gradientUnits="userSpaceOnUse">
	<stop  offset="0" style="stop-color:#0099FF"/>
	<stop  offset="0.6098" style="stop-color:#A033FF"/>
	<stop  offset="0.9348" style="stop-color:#FF5280"/>
	<stop  offset="1" style="stop-color:#FF7061"/>
</radialGradient>
<path class="st1" d="M30,10.1c-11.2,0-19.9,8.2-19.9,19.3c0,5.8,2.4,10.8,6.3,14.3c0.3,0.3,0.5,0.7,0.5,1.1l0.1,3.5
	c0,1.1,1.2,1.9,2.2,1.4l4-1.7c0.3-0.1,0.7-0.2,1.1-0.1c1.8,0.5,3.8,0.8,5.8,0.8c11.2,0,19.9-8.2,19.9-19.3
	C49.9,18.3,41.2,10.1,30,10.1z"/>
<path class="st2" d="M18,35.1l5.9-9.3c0.9-1.5,2.9-1.8,4.3-0.8l4.7,3.5c0.4,0.3,1,0.3,1.4,0l6.3-4.8c0.8-0.6,1.9,0.4,1.4,1.3
	l-5.9,9.3c-0.9,1.5-2.9,1.8-4.3,0.8l-4.7-3.5c-0.4-0.3-1-0.3-1.4,0l-6.3,4.8C18.6,36.9,17.5,35.9,18,35.1z"/>
</svg>
