<svg width="60" height="70" viewBox="0 0 60 70" fill="none" xmlns="http://www.w3.org/2000/svg">
<g filter="url(#filter0_d_81_13670)">
<path fill-rule="evenodd" clip-rule="evenodd" d="M39.0815 0C45.105 0 48.116 0 51.3585 1.025C54.8985 2.3135 57.6865 5.1015 58.975 8.6415C60 11.8835 60 14.8955 60 20.9185V39.0815C60 45.105 60 48.116 58.975 51.3585C57.6865 54.8985 54.8985 57.6865 51.3585 58.9745C48.116 60 45.105 60 39.0815 60H20.9185C14.895 60 11.8835 60 8.6415 58.9745C5.1015 57.6865 2.3135 54.8985 1.025 51.3585C0 48.116 0 45.105 0 39.0815V20.9185C0 14.8955 0 11.8835 1.025 8.6415C2.3135 5.1015 5.1015 2.3135 8.6415 1.025C11.8835 0 14.895 0 20.9185 0H39.0815Z" fill="url(#paint0_linear_81_13670)"/>
<path fill-rule="evenodd" clip-rule="evenodd" d="M30 47.5C42.1503 47.5 52 39.3292 52 29.25C52 19.1708 42.1503 11 30 11C17.8497 11 8 19.1708 8 29.25C8 35.8324 12.2009 41.6009 18.5 44.8112V45.5C18.5 46.9883 16.625 48.845 15.8361 49.6262C15.5978 49.8622 15.4586 50 15.5 50C17.6975 50 19.4854 49.044 20.8762 48.3003C21.4971 47.9684 22.0388 47.6787 22.5024 47.5353C23.7564 47.1474 24.4829 47.0341 25.7063 47.1526C27.095 47.3805 28.5307 47.5 30 47.5Z" fill="white"/>
</g>
<defs>
<filter id="filter0_d_81_13670" x="-10" y="-10" width="80" height="80" filterUnits="userSpaceOnUse" color-interpolation-filters="sRGB">
<feFlood flood-opacity="0" result="BackgroundImageFix"/>
<feColorMatrix in="SourceAlpha" type="matrix" values="0 0 0 0 0 0 0 0 0 0 0 0 0 0 0 0 0 0 127 0" result="hardAlpha"/>
<feOffset/>
<feGaussianBlur stdDeviation="5"/>
<feColorMatrix type="matrix" values="0 0 0 0 0 0 0 0 0 0 0 0 0 0 0 0 0 0 0.1 0"/>
<feBlend mode="normal" in2="BackgroundImageFix" result="effect1_dropShadow_81_13670"/>
<feBlend mode="normal" in="SourceGraphic" in2="effect1_dropShadow_81_13670" result="shape"/>
</filter>
<linearGradient id="paint0_linear_81_13670" x1="0" y1="0" x2="0" y2="60" gradientUnits="userSpaceOnUse">
<stop stop-color="#67FF81"/>
<stop offset="1" stop-color="#01B41F"/>
</linearGradient>
</defs>
</svg>
