<svg width="32" height="13" viewBox="0 0 32 13" fill="none" xmlns="http://www.w3.org/2000/svg">
<path fill-rule="evenodd" clip-rule="evenodd" d="M14.375 5C13.7959 2.1472 11.2737 0 8.25 0C5.2263 0 2.70411 2.1472 2.12502 5H0.75C0.335786 5 0 5.33579 0 5.75C0 6.16421 0.335786 6.5 0.75 6.5H2.00491C2.13613 9.83588 4.88195 12.5 8.25 12.5C11.6181 12.5 14.3639 9.83588 14.4951 6.5H17.0049C17.1361 9.83588 19.8819 12.5 23.25 12.5C26.618 12.5 29.3639 9.83588 29.4951 6.5H30.75C31.1642 6.5 31.5 6.16421 31.5 5.75C31.5 5.33579 31.1642 5 30.75 5H29.375C28.7959 2.1472 26.2737 0 23.25 0C20.2263 0 17.7041 2.1472 17.125 5H14.375ZM3.5 6.25C3.5 3.62665 5.62665 1.5 8.25 1.5C10.8734 1.5 13 3.62665 13 6.25C13 8.87335 10.8734 11 8.25 11C5.62665 11 3.5 8.87335 3.5 6.25ZM18.5 6.25C18.5 3.62665 20.6266 1.5 23.25 1.5C25.8734 1.5 28 3.62665 28 6.25C28 8.87335 25.8734 11 23.25 11C20.6266 11 18.5 8.87335 18.5 6.25Z" fill="white"/>
</svg>
