<svg width="60" height="60" viewBox="0 0 60 60" fill="none" xmlns="http://www.w3.org/2000/svg">
<path fill-rule="evenodd" clip-rule="evenodd" d="M39.0815 0C45.105 0 48.116 0 51.3585 1.025C54.8985 2.3135 57.6865 5.1015 58.975 8.6415C60 11.8835 60 14.8955 60 20.9185V39.0815C60 45.105 60 48.116 58.975 51.3585C57.6865 54.8985 54.8985 57.6865 51.3585 58.9745C48.116 60 45.105 60 39.0815 60H20.9185C14.895 60 11.8835 60 8.6415 58.9745C5.1015 57.6865 2.3135 54.8985 1.025 51.3585C0 48.116 0 45.105 0 39.0815V20.9185C0 14.8955 0 11.8835 1.025 8.6415C2.3135 5.1015 5.1015 2.3135 8.6415 1.025C11.8835 0 14.895 0 20.9185 0H39.0815Z" fill="#25D366"/>
<path d="M43.2872 16.6366C39.7613 13.1069 35.0733 11.1625 30.0783 11.1602C19.7873 11.1602 11.4098 19.5358 11.4066 29.8309C11.4047 33.1225 12.2648 36.3348 13.8984 39.1652L11.25 48.8411L21.1477 46.2452C23.8753 47.7316 26.9456 48.5158 30.0708 48.5172H30.0788C40.3697 48.5172 48.7458 40.1402 48.75 29.8455C48.7523 24.857 46.8113 20.1658 43.2872 16.6366ZM30.0788 45.3634H30.0727C27.2869 45.3625 24.5559 44.6144 22.1728 43.2006L21.6061 42.8641L15.7327 44.4048L17.2997 38.6786L16.9308 38.0898C15.3769 35.6195 14.5561 32.7644 14.558 29.8309C14.5608 21.2748 21.5231 14.3134 30.0834 14.3134C34.2291 14.3144 38.1248 15.9311 41.0555 18.865C43.9856 21.7984 45.5981 25.697 45.5972 29.8441C45.5944 38.4016 38.632 45.3634 30.0788 45.3634ZM38.5913 33.7408C38.1244 33.5069 35.8308 32.3795 35.4028 32.2225C34.9748 32.0669 34.665 31.9895 34.3538 32.4564C34.0425 32.9233 33.1486 33.9747 32.8758 34.2859C32.6039 34.5972 32.332 34.6366 31.8652 34.4027C31.3983 34.1687 29.8955 33.6766 28.1147 32.0866C26.7272 30.8505 25.7906 29.3214 25.5188 28.8545C25.2469 28.3877 25.4897 28.1359 25.7236 27.903C25.9336 27.6939 26.1905 27.3583 26.4234 27.0855C26.6564 26.8127 26.7342 26.6181 26.8898 26.3073C27.0455 25.9961 26.9681 25.7237 26.8509 25.4903C26.7338 25.2564 25.8009 22.96 25.4128 22.0258C25.0336 21.1159 24.6492 21.2392 24.3633 21.2252C24.0905 21.212 23.7797 21.2083 23.4689 21.2083C23.1581 21.2083 22.6523 21.325 22.2248 21.7923C21.7978 22.2592 20.5922 23.3875 20.5922 25.6848C20.5922 27.9808 22.2638 30.1998 22.4972 30.5106C22.7306 30.8214 25.7869 35.5347 30.4669 37.5555C31.5797 38.0355 32.4492 38.3228 33.1266 38.5384C34.2441 38.8942 35.2613 38.8431 36.0656 38.7231C36.9619 38.5895 38.8256 37.5948 39.2152 36.505C39.6038 35.4156 39.6038 34.4819 39.4861 34.2869C39.3684 34.0914 39.0572 33.9747 38.5913 33.7408Z" fill="white"/>
</svg>
