<svg width="24" height="24" viewBox="0 0 24 24" fill="none" xmlns="http://www.w3.org/2000/svg">
<path d="M16.6233 21.5835C17.5995 21.5835 18.5538 21.294 19.3655 20.7517C20.1772 20.2093 20.8098 19.4385 21.1834 18.5366C21.557 17.6347 21.6547 16.6422 21.4643 15.6848C21.2738 14.7273 20.8037 13.8479 20.1134 13.1576C19.4231 12.4673 18.5437 11.9972 17.5862 11.8068C16.6288 11.6163 15.6364 11.7141 14.7345 12.0876C13.8326 12.4612 13.0617 13.0938 12.5193 13.9055C11.977 14.7172 11.6875 15.6715 11.6875 16.6477C11.6875 17.9568 12.2075 19.2122 13.1332 20.1379C14.0588 21.0635 15.3142 21.5835 16.6233 21.5835V21.5835Z" stroke="white" stroke-width="1.5" stroke-linecap="round" stroke-linejoin="round"/>
<path d="M16.625 14.1797V19.1155" stroke="white" stroke-width="1.5" stroke-linecap="round" stroke-linejoin="round"/>
<path d="M14.1562 16.6484H19.0921" stroke="white" stroke-width="1.5" stroke-linecap="round" stroke-linejoin="round"/>
<path d="M6.75391 4.30859H19.0934" stroke="white" stroke-width="1.5" stroke-linecap="round" stroke-linejoin="round"/>
<path d="M6.75391 9.24414H19.0934" stroke="white" stroke-width="1.5" stroke-linecap="round" stroke-linejoin="round"/>
<path d="M6.75391 14.1797H9.22181" stroke="white" stroke-width="1.5" stroke-linecap="round" stroke-linejoin="round"/>
<path d="M3.36314 4.00412C3.43631 4.0161 3.50282 4.0537 3.55082 4.11021C3.59883 4.16672 3.62518 4.23846 3.62518 4.3126C3.62518 4.38675 3.59883 4.45846 3.55082 4.51497C3.50282 4.57148 3.43631 4.6091 3.36314 4.62109C3.31841 4.62842 3.2726 4.62594 3.22893 4.61381C3.18526 4.60168 3.14476 4.58019 3.11021 4.55085C3.07566 4.5215 3.0479 4.48499 3.02887 4.44385C3.00984 4.40271 3 4.35793 3 4.3126C3 4.26728 3.00984 4.22249 3.02887 4.18136C3.0479 4.14022 3.07566 4.1037 3.11021 4.07436C3.14476 4.04501 3.18526 4.02353 3.22893 4.0114C3.2726 3.99927 3.31841 3.99679 3.36314 4.00412" stroke="white" stroke-width="1.5" stroke-linecap="round" stroke-linejoin="round"/>
<path d="M3.36314 8.93966C3.43631 8.95165 3.50282 8.98925 3.55082 9.04576C3.59883 9.10226 3.62518 9.174 3.62518 9.24815C3.62518 9.3223 3.59883 9.39401 3.55082 9.45052C3.50282 9.50703 3.43631 9.54465 3.36314 9.55664C3.31841 9.56397 3.2726 9.56149 3.22893 9.54936C3.18526 9.53723 3.14476 9.51574 3.11021 9.48639C3.07566 9.45705 3.0479 9.42054 3.02887 9.3794C3.00984 9.33826 3 9.29348 3 9.24815C3 9.20282 3.00984 9.15804 3.02887 9.1169C3.0479 9.07576 3.07566 9.03925 3.11021 9.00991C3.14476 8.98056 3.18526 8.95907 3.22893 8.94694C3.2726 8.93481 3.31841 8.93233 3.36314 8.93966" stroke="white" stroke-width="1.5" stroke-linecap="round" stroke-linejoin="round"/>
<path d="M3.36314 13.8762C3.43631 13.8882 3.50282 13.9258 3.55082 13.9823C3.59883 14.0388 3.62518 14.1105 3.62518 14.1847C3.62518 14.2588 3.59883 14.3305 3.55082 14.387C3.50282 14.4436 3.43631 14.4812 3.36314 14.4932C3.31841 14.5005 3.2726 14.498 3.22893 14.4859C3.18526 14.4738 3.14476 14.4523 3.11021 14.4229C3.07566 14.3936 3.0479 14.3571 3.02887 14.3159C3.00984 14.2748 3 14.23 3 14.1847C3 14.1393 3.00984 14.0946 3.02887 14.0534C3.0479 14.0123 3.07566 13.9758 3.11021 13.9464C3.14476 13.9171 3.18526 13.8956 3.22893 13.8835C3.2726 13.8713 3.31841 13.8689 3.36314 13.8762" stroke="white" stroke-width="1.5" stroke-linecap="round" stroke-linejoin="round"/>
</svg>
