<svg width="24" height="24" viewBox="0 0 24 24" fill="none" xmlns="http://www.w3.org/2000/svg">
<path d="M17.25 21H6.75C6.35218 21 5.97064 20.8419 5.68933 20.5606C5.40803 20.2793 5.25 19.8978 5.25 19.5V6H18.75V19.5C18.75 19.8978 18.5919 20.2793 18.3106 20.5606C18.0293 20.8419 17.6478 21 17.25 21V21Z" stroke="white" stroke-width="1.5" stroke-linecap="round" stroke-linejoin="round"/>
<path d="M9.75 16.5V10.5" stroke="white" stroke-width="1.5" stroke-linecap="round" stroke-linejoin="round"/>
<path d="M14.25 16.5V10.5" stroke="white" stroke-width="1.5" stroke-linecap="round" stroke-linejoin="round"/>
<path d="M2.25 6H21.75" stroke="white" stroke-width="1.5" stroke-linecap="round" stroke-linejoin="round"/>
<path d="M14.25 3H9.75C9.35218 3 8.97064 3.15803 8.68933 3.43933C8.40803 3.72064 8.25 4.10218 8.25 4.5V6H15.75V4.5C15.75 4.10218 15.5919 3.72064 15.3106 3.43933C15.0293 3.15803 14.6478 3 14.25 3V3Z" stroke="white" stroke-width="1.5" stroke-linecap="round" stroke-linejoin="round"/>
</svg>
