<svg width="24" height="24" viewBox="0 0 24 24" fill="none" xmlns="http://www.w3.org/2000/svg">
<path d="M21 7H18L16 3H8L6 7H3C2.46957 7 1.96085 7.2107 1.58577 7.58577C1.2107 7.96085 1 8.46957 1 9V19C1 19.5304 1.2107 20.0391 1.58577 20.4142C1.96085 20.7893 2.46957 21 3 21H21C21.5304 21 22.0392 20.7893 22.4142 20.4142C22.7893 20.0391 23 19.5304 23 19V9C23 8.46957 22.7893 7.96085 22.4142 7.58577C22.0392 7.2107 21.5304 7 21 7Z" stroke="white" stroke-width="1.5" stroke-linecap="round" stroke-linejoin="round"/>
<path d="M12.0391 17C12.8302 17 13.6035 16.7654 14.2613 16.3259C14.9191 15.8864 15.4318 15.2616 15.7345 14.5307C16.0373 13.7998 16.1165 12.9956 15.9622 12.2196C15.8078 11.4437 15.4268 10.731 14.8674 10.1715C14.308 9.61214 13.5953 9.2312 12.8194 9.07686C12.0435 8.92252 11.2392 9.00173 10.5083 9.30448C9.7774 9.60723 9.15266 10.1199 8.71313 10.7777C8.27361 11.4355 8.03906 12.2089 8.03906 13C8.03906 14.0609 8.46047 15.0783 9.21061 15.8284C9.96076 16.5785 10.9782 17 12.0391 17Z" stroke="white" stroke-width="1.5" stroke-linecap="round" stroke-linejoin="round"/>
</svg>
