<svg width="24" height="24" viewBox="0 0 24 24" fill="none" xmlns="http://www.w3.org/2000/svg">
<path d="M2 15.6654C2 15.3117 2.14047 14.9726 2.39052 14.7225C2.64057 14.4725 2.97971 14.332 3.33333 14.332C3.68696 14.332 4.0261 14.4725 4.27615 14.7225C4.5262 14.9726 4.66667 15.3117 4.66667 15.6654V18.332C4.66667 18.6857 4.5262 19.0248 4.27615 19.2748C4.0261 19.5249 3.68696 19.6654 3.33333 19.6654C2.97971 19.6654 2.64057 19.5249 2.39052 19.2748C2.14047 19.0248 2 18.6857 2 18.332V15.6654Z" stroke="white" stroke-width="1.5" stroke-linecap="round" stroke-linejoin="round"/>
<path d="M19.332 15.6654C19.332 15.3117 19.4725 14.9726 19.7225 14.7225C19.9726 14.4725 20.3117 14.332 20.6654 14.332C21.019 14.332 21.3581 14.4725 21.6082 14.7225C21.8582 14.9726 21.9987 15.3117 21.9987 15.6654V18.332C21.9987 18.6857 21.8582 19.0248 21.6082 19.2748C21.3581 19.5249 21.019 19.6654 20.6654 19.6654C20.3117 19.6654 19.9726 19.5249 19.7225 19.2748C19.4725 19.0248 19.332 18.6857 19.332 18.332V15.6654Z" stroke="white" stroke-width="1.5" stroke-linecap="round" stroke-linejoin="round"/>
<path d="M7.33203 15.6657H8.29205C8.40551 15.6665 8.51731 15.6384 8.61686 15.584C8.71641 15.5295 8.80038 15.4506 8.86089 15.3546L9.9987 13.5234C10.0637 13.4214 10.1549 13.3388 10.2628 13.2841C10.3707 13.2293 10.4913 13.2045 10.612 13.2123C10.7335 13.2198 10.8504 13.2613 10.9494 13.332C11.0485 13.4028 11.1256 13.4998 11.172 13.6123L12.8609 17.399C12.9084 17.5072 12.9839 17.6008 13.0795 17.6702C13.1751 17.7397 13.2874 17.7825 13.4049 17.7943C13.5225 17.806 13.6411 17.7863 13.7485 17.7372C13.856 17.6881 13.9485 17.6112 14.0165 17.5145L15.1365 15.9501C15.198 15.8639 15.2794 15.7938 15.3738 15.7459C15.4682 15.6979 15.5728 15.6735 15.6787 15.6746H16.6654" stroke="white" stroke-width="1.5" stroke-linecap="round" stroke-linejoin="round"/>
<path d="M19.3346 15.6667V12.3333C19.3299 10.3899 18.5558 8.52735 17.1816 7.1531C15.8073 5.77885 13.9448 5.00469 12.0013 5V5C10.0578 5.00469 8.19527 5.77885 6.82102 7.1531C5.44677 8.52735 4.67266 10.3899 4.66797 12.3333V15.6667" stroke="white" stroke-width="1.5" stroke-linecap="round" stroke-linejoin="round"/>
</svg>
