<svg width="24" height="24" viewBox="0 0 24 24" fill="none" xmlns="http://www.w3.org/2000/svg">
<path d="M13.1071 13.9552L10.0508 14.3906L10.4862 11.3343L18.3325 3.49614C18.683 3.1696 19.1465 2.99184 19.6254 3.00029C20.1043 3.00874 20.5612 3.20275 20.8999 3.54145C21.2386 3.88014 21.4327 4.33706 21.4411 4.81598C21.4496 5.29489 21.2718 5.7584 20.9453 6.10883L13.1071 13.9552Z" stroke="white" stroke-width="1.5" stroke-linecap="round" stroke-linejoin="round"/>
<path d="M17.4609 4.36719L20.0737 6.97988" stroke="white" stroke-width="1.5" stroke-linecap="round" stroke-linejoin="round"/>
<path d="M17.7889 14.0448V20.2069C17.7889 20.5337 17.659 20.8472 17.4279 21.0783C17.1968 21.3094 16.8833 21.4393 16.5565 21.4393H4.23241C3.90555 21.4393 3.59208 21.3094 3.36096 21.0783C3.12984 20.8472 3 20.5337 3 20.2069V7.8828C3 7.55594 3.12984 7.24247 3.36096 7.01135C3.59208 6.78023 3.90555 6.65039 4.23241 6.65039H10.3944" stroke="white" stroke-width="1.5" stroke-linecap="round" stroke-linejoin="round"/>
</svg>
