<svg width="46" height="46" viewBox="0 0 46 46" fill="none" xmlns="http://www.w3.org/2000/svg">
<g clip-path="url(#clip0_116_16609)">
<path d="M45.3102 0.210855C45.101 0.0878268 44.8628 0.0229492 44.6201 0.0229492C44.3775 0.0229492 44.1393 0.0878268 43.9302 0.210855L37.2985 3.52668C37.0998 2.54911 36.5699 1.67008 35.7982 1.03802C35.0265 0.405959 34.0602 0.0596133 33.0627 0.057518H12.9377C11.9401 0.0596133 10.9738 0.405959 10.2021 1.03802C9.43035 1.67008 8.90046 2.54911 8.70183 3.52668L2.07012 0.210855C1.86099 0.0878268 1.62279 0.0229492 1.38015 0.0229492C1.13751 0.0229492 0.899257 0.0878268 0.690121 0.210855C0.476993 0.336132 0.300865 0.51564 0.179662 0.731112C0.0584585 0.946584 -0.00346358 1.19033 0.000149531 1.43752C0.000149531 8.16502 1.51433 12.9375 4.50433 15.3908C5.66958 16.3889 7.10266 17.0221 8.62515 17.2117V18.6875C8.62515 19.8313 9.07948 20.9282 9.88823 21.7369C10.697 22.5457 11.7939 23 12.9377 23H33.0627C34.2064 23 35.3033 22.5457 36.1121 21.7369C36.9208 20.9282 37.3752 19.8313 37.3752 18.6875V17.2117C38.8976 17.0221 40.3307 16.3889 41.496 15.3908C44.486 12.8608 46.0002 8.16502 46.0002 1.43752C46.0038 1.19033 45.9418 0.946584 45.8206 0.731112C45.6994 0.51564 45.5233 0.336132 45.3102 0.210855V0.210855ZM12.9377 2.87502H33.0627C33.3085 2.87673 33.5495 2.9432 33.7615 3.06769C33.9735 3.19219 34.1489 3.37034 34.2702 3.58421L23.0002 9.85168L11.7301 3.58421C11.8514 3.37034 12.0268 3.19219 12.2388 3.06769C12.4508 2.9432 12.6918 2.87673 12.9377 2.87502V2.87502ZM6.306 13.1484C4.926 11.9409 3.29683 9.31504 2.95183 3.79504L8.70183 6.6317V14.2984C7.81673 14.1301 6.99089 13.7337 6.306 13.1484V13.1484ZM33.1393 20.125H13.0143C12.6346 20.1201 12.2719 19.967 12.0034 19.6985C11.7348 19.43 11.5818 19.0672 11.5768 18.6875V6.74669L22.3868 12.7459C22.5953 12.8709 22.8338 12.9369 23.0768 12.9369C23.3199 12.9369 23.5584 12.8709 23.7668 12.7459L34.5768 6.74669V18.6875C34.5744 18.8821 34.533 19.0743 34.4551 19.2526C34.3772 19.431 34.2643 19.5919 34.1232 19.7259C33.982 19.8599 33.8155 19.9643 33.6333 20.0328C33.4511 20.1014 33.2571 20.1327 33.0627 20.125H33.1393ZM39.771 13.1484C39.1099 13.7289 38.3117 14.1313 37.4518 14.3175V6.65086L43.2018 3.8142C42.7035 9.35336 41.0743 11.9409 39.6943 13.1484H39.771Z" fill="#D563DF"/>
<path d="M23 28.75C22.6188 28.75 22.2531 28.9015 21.9835 29.1711C21.7139 29.4406 21.5625 29.8063 21.5625 30.1875V44.5625C21.5625 44.9437 21.7139 45.3094 21.9835 45.579C22.2531 45.8486 22.6188 46 23 46C23.3812 46 23.7469 45.8486 24.0165 45.579C24.2861 45.3094 24.4375 44.9437 24.4375 44.5625V30.1875C24.4375 29.8063 24.2861 29.4406 24.0165 29.1711C23.7469 28.9015 23.3812 28.75 23 28.75V28.75Z" fill="#D563DF"/>
<path d="M30.1875 25.875C29.8063 25.875 29.4406 26.0265 29.171 26.2961C28.9014 26.5656 28.75 26.9313 28.75 27.3125V35.9375C28.75 36.3187 28.9014 36.6844 29.171 36.954C29.4406 37.2236 29.8063 37.375 30.1875 37.375C30.5687 37.375 30.9344 37.2236 31.204 36.954C31.4736 36.6844 31.625 36.3187 31.625 35.9375V27.3125C31.625 26.9313 31.4736 26.5656 31.204 26.2961C30.9344 26.0265 30.5687 25.875 30.1875 25.875V25.875Z" fill="#D563DF"/>
<path d="M15.8125 25.875C15.4313 25.875 15.0656 26.0265 14.796 26.2961C14.5264 26.5656 14.375 26.9313 14.375 27.3125V35.9375C14.375 36.3187 14.5264 36.6844 14.796 36.954C15.0656 37.2236 15.4313 37.375 15.8125 37.375C16.1937 37.375 16.5594 37.2236 16.829 36.954C17.0986 36.6844 17.25 36.3187 17.25 35.9375V27.3125C17.25 26.9313 17.0986 26.5656 16.829 26.2961C16.5594 26.0265 16.1937 25.875 15.8125 25.875V25.875Z" fill="#D563DF"/>
</g>
<defs>
<clipPath id="clip0_116_16609">
<rect width="46" height="46" fill="white"/>
</clipPath>
</defs>
</svg>
