<svg width="24" height="24" viewBox="0 0 24 24" fill="none" xmlns="http://www.w3.org/2000/svg">
<path d="M19.3334 8.66668V3.33334C19.3334 2.97971 19.1929 2.64057 18.9429 2.39052C18.6928 2.14047 18.3537 2 18 2H3.33334C2.97971 2 2.64058 2.14047 2.39053 2.39052C2.14048 2.64057 2 2.97971 2 3.33334V16.6667C2 17.0203 2.14048 17.3595 2.39053 17.6095C2.64058 17.8596 2.97971 18 3.33334 18H8.66669" stroke="white" stroke-width="1.5" stroke-linecap="round" stroke-linejoin="round"/>
<path d="M21.4496 14.551L14.6673 21.3332L11.334 21.9999L12.0007 18.6666L18.7829 11.8843C18.9579 11.7091 19.1658 11.5701 19.3945 11.4752C19.6233 11.3804 19.8686 11.3315 20.1162 11.3315C20.3639 11.3315 20.6091 11.3804 20.8379 11.4752C21.0667 11.5701 21.2746 11.7091 21.4496 11.8843V11.8843C21.6262 12.0568 21.7668 12.2627 21.8629 12.4902C21.9591 12.7176 22.0089 12.9619 22.0096 13.2088C22.0067 13.7098 21.8053 14.1893 21.4496 14.5421V14.551Z" stroke="white" stroke-width="1.5" stroke-linecap="round" stroke-linejoin="round"/>
<path d="M5.83203 5.83105H15.1298" stroke="white" stroke-width="1.5" stroke-linecap="round" stroke-linejoin="round"/>
<path d="M5.83203 9.83105H15.1298" stroke="white" stroke-width="1.5" stroke-linecap="round" stroke-linejoin="round"/>
<path d="M5.83203 13.8313H10.4987" stroke="white" stroke-width="1.5" stroke-linecap="round" stroke-linejoin="round"/>
</svg>
