<svg width="24" height="24" viewBox="0 0 24 24" fill="none" xmlns="http://www.w3.org/2000/svg">
<path d="M19.1308 3.00002H4.86155C4.36784 3.00002 3.89435 3.19614 3.54525 3.54525C3.19614 3.89435 3.00002 4.36784 3.00002 4.86155V19.1308C2.999 19.3759 3.04641 19.6188 3.1395 19.8455C3.2326 20.0723 3.36956 20.2784 3.54252 20.4521C3.71549 20.6257 3.92104 20.7635 4.14739 20.8576C4.37375 20.9516 4.61644 21 4.86155 21H19.1308C19.6265 21 20.102 20.8031 20.4525 20.4525C20.8031 20.102 21 19.6265 21 19.1308V4.86155C21 4.61644 20.9516 4.37375 20.8576 4.14739C20.7636 3.92104 20.6257 3.71549 20.4521 3.54252C20.2784 3.36956 20.0723 3.2326 19.8455 3.1395C19.6188 3.04641 19.3759 2.999 19.1308 3.00002ZM19.4616 19.1539C19.4596 19.241 19.4241 19.324 19.3625 19.3856C19.3009 19.4472 19.2179 19.4827 19.1308 19.4846H4.86155C4.77517 19.4826 4.693 19.4469 4.63262 19.3851C4.57225 19.3233 4.53845 19.2403 4.53848 19.1539V4.86155C4.53848 4.77587 4.57252 4.69369 4.63311 4.63311C4.69369 4.57252 4.77587 4.53848 4.86155 4.53848H19.1308C19.2172 4.53845 19.3002 4.57225 19.362 4.63262C19.4238 4.693 19.4596 4.77517 19.4616 4.86155V19.1539Z" fill="white"/>
<path d="M16.9388 6.29199H10.3542C10.1502 6.29199 9.95452 6.37304 9.81026 6.51729C9.666 6.66155 9.58496 6.85721 9.58496 7.06122C9.58496 7.26524 9.666 7.46089 9.81026 7.60515C9.95452 7.74941 10.1502 7.83045 10.3542 7.83045H16.9388C17.1428 7.83045 17.3385 7.74941 17.4827 7.60515C17.627 7.46089 17.708 7.26524 17.708 7.06122C17.708 6.85721 17.627 6.66155 17.4827 6.51729C17.3385 6.37304 17.1428 6.29199 16.9388 6.29199Z" fill="white"/>
<path d="M16.9382 12.877H7.06122C6.85721 12.877 6.66155 12.958 6.51729 13.1023C6.37304 13.2465 6.29199 13.4422 6.29199 13.6462C6.29199 13.8502 6.37304 14.0459 6.51729 14.1901C6.66155 14.3344 6.85721 14.4154 7.06122 14.4154H16.9382C17.1422 14.4154 17.3378 14.3344 17.4821 14.1901C17.6263 14.0459 17.7074 13.8502 17.7074 13.6462C17.7074 13.4422 17.6263 13.2465 17.4821 13.1023C17.3378 12.958 17.1422 12.877 16.9382 12.877Z" fill="white"/>
<path d="M16.9382 9.58496H7.06122C6.85721 9.58496 6.66155 9.666 6.51729 9.81026C6.37304 9.95452 6.29199 10.1502 6.29199 10.3542C6.29199 10.5582 6.37304 10.7539 6.51729 10.8981C6.66155 11.0424 6.85721 11.1234 7.06122 11.1234H16.9382C17.1422 11.1234 17.3378 11.0424 17.4821 10.8981C17.6263 10.7539 17.7074 10.5582 17.7074 10.3542C17.7074 10.1502 17.6263 9.95452 17.4821 9.81026C17.3378 9.666 17.1422 9.58496 16.9382 9.58496Z" fill="white"/>
<path d="M12.5458 16.208H7.06122C6.85721 16.208 6.66155 16.2891 6.51729 16.4333C6.37304 16.5776 6.29199 16.7732 6.29199 16.9772C6.29199 17.1813 6.37304 17.3769 6.51729 17.5212C6.66155 17.6654 6.85721 17.7465 7.06122 17.7465H12.5458C12.7499 17.7465 12.9455 17.6654 13.0898 17.5212C13.234 17.3769 13.3151 17.1813 13.3151 16.9772C13.3151 16.7732 13.234 16.5776 13.0898 16.4333C12.9455 16.2891 12.7499 16.208 12.5458 16.208Z" fill="white"/>
</svg>
