<svg width="24" height="24" viewBox="0 0 24 24" fill="none" xmlns="http://www.w3.org/2000/svg">
<path d="M19.3309 8.66001V3.33002C19.3283 2.97636 19.1859 2.63809 18.9349 2.38895C18.6839 2.13981 18.3445 1.99999 17.9908 2H3.33011C2.97735 2 2.63904 2.14013 2.38961 2.38956C2.14017 2.63898 2.00004 2.97728 2.00004 3.33002V16.66C1.99872 16.8355 2.03215 17.0095 2.0984 17.1721C2.16465 17.3346 2.26241 17.4824 2.38605 17.6069C2.50969 17.7315 2.65676 17.8304 2.81879 17.8978C2.98082 17.9653 3.15459 18 3.33011 18H8.66038" stroke="white" stroke-width="1.5" stroke-linecap="round" stroke-linejoin="round"/>
<path d="M6.99019 14.6601C7.32135 14.662 7.64561 14.5655 7.92178 14.3828C8.19795 14.2 8.41356 13.9393 8.54121 13.6338C8.66885 13.3282 8.70276 12.9916 8.63864 12.6667C8.57452 12.3419 8.41525 12.0434 8.18109 11.8092C7.94692 11.5751 7.64843 11.4158 7.32353 11.3517C6.99864 11.2876 6.66202 11.3215 6.35644 11.4491C6.05087 11.5767 5.79015 11.7923 5.6074 12.0685C5.42465 12.3447 5.32813 12.6689 5.33011 13C5.33011 13.218 5.37305 13.4339 5.45647 13.6353C5.5399 13.8367 5.66219 14.0197 5.81634 14.1738C5.97049 14.328 6.15349 14.4503 6.3549 14.5337C6.55631 14.6171 6.77219 14.6601 6.99019 14.6601V14.6601Z" stroke="white" stroke-width="1.5" stroke-linecap="round" stroke-linejoin="round"/>
<path d="M8.66016 13.0002V7.0002C8.65998 6.71993 8.74768 6.44667 8.91092 6.21886C9.07417 5.99104 9.30474 5.82014 9.5702 5.73021L13.5704 4.62019C13.7715 4.55608 13.9848 4.54001 14.1932 4.57326C14.4016 4.60651 14.5994 4.68817 14.7705 4.81166C14.9417 4.93516 15.0815 5.09707 15.1787 5.28438C15.276 5.47169 15.328 5.67918 15.3305 5.89021V8.6602" stroke="white" stroke-width="1.5" stroke-linecap="round" stroke-linejoin="round"/>
<path d="M21.4406 14.5499L14.6602 21.3299L11.3301 21.9999L11.9901 18.6599L18.7804 11.8799C18.9551 11.7051 19.1624 11.5665 19.3906 11.4719C19.6188 11.3773 19.8635 11.3286 20.1105 11.3286C20.3576 11.3286 20.6022 11.3773 20.8304 11.4719C21.0586 11.5665 21.266 11.7051 21.4406 11.8799V11.8799C21.6178 12.0531 21.7586 12.26 21.8547 12.4884C21.9508 12.7168 22.0003 12.9621 22.0003 13.2099C22.0003 13.4577 21.9508 13.703 21.8547 13.9314C21.7586 14.1598 21.6178 14.3667 21.4406 14.5399V14.5499Z" stroke="white" stroke-width="1.5" stroke-linecap="round" stroke-linejoin="round"/>
</svg>
