<svg width="25" height="24" viewBox="0 0 25 24" fill="none" xmlns="http://www.w3.org/2000/svg">
<path d="M12.5353 4.01323C11.2095 4.01177 9.90739 4.36476 8.76383 5.03564C7.62028 5.70652 6.67684 6.67089 6.03125 7.82891C5.38565 8.98693 5.06136 10.2965 5.09195 11.6219C5.12254 12.9474 5.50691 14.2406 6.20524 15.3676L4.01953 19.9661L8.61806 17.7804C9.59809 18.389 10.706 18.7617 11.8546 18.8692C13.0032 18.9767 14.1611 18.8161 15.237 18.3999C16.313 17.9837 17.2776 17.3234 18.0549 16.471C18.8322 15.6185 19.401 14.5973 19.7164 13.4876C20.0318 12.378 20.0852 11.2102 19.8725 10.0764C19.6598 8.94254 19.1867 7.87358 18.4905 6.9537C17.7944 6.03382 16.8941 5.28814 15.8607 4.77542C14.8273 4.2627 13.6889 3.99692 12.5353 3.99904V4.01323Z" stroke="white" stroke-width="1.2" stroke-linecap="round" stroke-linejoin="round"/>
<path d="M14.6641 13.0605C14.6641 13.6252 14.4398 14.1667 14.0406 14.5659C13.6413 14.9652 13.0998 15.1895 12.5352 15.1895C11.9706 15.1895 11.4291 14.9652 11.0298 14.5659C10.6306 14.1667 10.4062 13.6252 10.4062 13.0605H14.6641Z" stroke="white" stroke-width="1.2" stroke-linecap="round" stroke-linejoin="round"/>
<path d="M9.34069 10.1368C9.28876 10.1368 9.23799 10.1522 9.19481 10.1811C9.15163 10.2099 9.11799 10.2509 9.09811 10.2989C9.07824 10.3469 9.07304 10.3997 9.08317 10.4506C9.0933 10.5015 9.11831 10.5483 9.15503 10.585C9.19175 10.6218 9.23854 10.6468 9.28947 10.6569C9.34041 10.667 9.3932 10.6618 9.44118 10.642C9.48916 10.6221 9.53016 10.5884 9.55901 10.5453C9.58786 10.5021 9.60326 10.4513 9.60326 10.3994C9.60424 10.3646 9.59811 10.3301 9.58526 10.2978C9.57241 10.2655 9.55312 10.2361 9.52854 10.2115C9.50396 10.187 9.47462 10.1677 9.44233 10.1548C9.41003 10.142 9.37544 10.1358 9.34069 10.1368" stroke="white" stroke-width="1.2" stroke-linecap="round" stroke-linejoin="round"/>
<path d="M15.7274 10.1368C15.6755 10.1368 15.6247 10.1522 15.5815 10.1811C15.5383 10.2099 15.5047 10.2509 15.4848 10.2989C15.465 10.3469 15.4598 10.3997 15.4699 10.4506C15.48 10.5015 15.505 10.5483 15.5417 10.585C15.5785 10.6218 15.6253 10.6468 15.6762 10.6569C15.7271 10.667 15.7799 10.6618 15.8279 10.642C15.8759 10.6221 15.9169 10.5884 15.9457 10.5453C15.9746 10.5021 15.99 10.4513 15.99 10.3994C15.991 10.3646 15.9848 10.3301 15.972 10.2978C15.9591 10.2655 15.9398 10.2361 15.9153 10.2115C15.8907 10.187 15.8613 10.1677 15.829 10.1548C15.7967 10.142 15.7622 10.1358 15.7274 10.1368" stroke="white" stroke-width="1.2" stroke-linecap="round" stroke-linejoin="round"/>
</svg>
