<svg width="14" height="12" viewBox="0 0 14 12" fill="none" xmlns="http://www.w3.org/2000/svg">
<path d="M13.4071 2.0439C12.8663 0.987193 11.8354 0.240305 10.6468 0.0522003C9.45819 -0.135905 8.24141 0.25137 7.38515 1.08678L6.90069 1.56257L6.41623 1.08678C5.56561 0.245838 4.34883 -0.141437 3.16021 0.0466678C1.97159 0.234773 0.940707 0.981661 0.399914 2.03837C-0.326775 3.46022 -0.0451126 5.1753 1.09844 6.29286L6.50073 11.8254C6.60776 11.936 6.75423 11.9969 6.90632 11.9969C7.05842 11.9969 7.20489 11.936 7.31192 11.8254L12.7029 6.2984C13.8465 5.1753 14.1338 3.46575 13.4071 2.0439ZM11.8974 5.52938L6.90069 10.6469L1.89836 5.52385C1.09844 4.7327 0.895641 3.53215 1.40827 2.53629C1.7857 1.79494 2.50675 1.27488 3.34047 1.1421C3.4813 1.11997 3.62214 1.10891 3.75733 1.10891C4.45022 1.10891 5.12621 1.38 5.62194 1.86686L6.50636 2.72993C6.72606 2.9457 7.08096 2.9457 7.30065 2.72993L8.18507 1.86686C8.7822 1.28042 9.63845 1.00932 10.4665 1.1421C11.3003 1.27488 12.0213 1.79494 12.3987 2.53629C12.9057 3.53215 12.7086 4.7327 11.8974 5.52938Z" fill="white"/>
</svg>
