<svg width="14" height="12" viewBox="0 0 14 12" fill="none" xmlns="http://www.w3.org/2000/svg">
<path d="M13.6031 2.01068C13.0669 0.9693 12.0413 0.233543 10.8525 0.0467736C9.66946 -0.139996 8.4515 0.239202 7.60651 1.06551L7.00044 1.65412L6.39438 1.07117C5.54355 0.244862 4.33725 -0.134336 3.14843 0.0524333C1.96544 0.239202 0.939786 0.97496 0.397824 2.01634C-0.324793 3.41994 -0.0450701 5.10652 1.0913 6.21016L6.67993 11.8698C6.76151 11.9547 6.87806 12 6.99461 12C7.11117 12 7.22772 11.9547 7.3093 11.8698L12.8921 6.21582C14.046 5.0952 14.3257 3.41428 13.6031 2.01068Z" fill="#D563DF"/>
</svg>
