<svg width="24" height="24" viewBox="0 0 24 24" fill="none" xmlns="http://www.w3.org/2000/svg">
<path d="M14.3281 3.53125C15.7975 3.91244 17.1202 4.72199 18.1283 5.85694C19.1363 6.99188 19.7841 8.40096 19.9892 9.90501C20.1943 11.4091 19.9474 12.9401 19.2801 14.3036C18.6128 15.667 17.555 16.8011 16.2414 17.5618V21.1332" stroke="white" stroke-width="1.3" stroke-linecap="round" stroke-linejoin="round"/>
<path d="M12.4153 14.1158C13.046 14.1158 13.6625 13.9288 14.1869 13.5784C14.7113 13.228 15.12 12.73 15.3614 12.1473C15.6027 11.5647 15.6658 10.9235 15.5428 10.3049C15.4198 9.68639 15.1161 9.11819 14.6701 8.67224C14.2242 8.22628 13.656 7.9226 13.0374 7.79956C12.4188 7.67652 11.7777 7.73965 11.195 7.981C10.6124 8.22235 10.1144 8.63107 9.76399 9.15546C9.41361 9.67985 9.22656 10.2963 9.22656 10.927C9.22656 11.7727 9.5625 12.5838 10.1605 13.1818C10.7585 13.7799 11.5696 14.1158 12.4153 14.1158Z" stroke="white" stroke-width="1.3" stroke-linecap="round" stroke-linejoin="round"/>
<path d="M10.5039 8.37753V2.63775C10.5061 2.4693 10.574 2.30836 10.6931 2.18923C10.8123 2.0701 10.9732 2.0022 11.1417 2H13.6927C13.8618 2 14.024 2.06721 14.1436 2.18682C14.2632 2.30642 14.3304 2.46861 14.3304 2.63775V8.37753" stroke="white" stroke-width="1.3" stroke-linecap="round" stroke-linejoin="round"/>
<path d="M4.7625 14.7626L3.97169 14.567C3.77261 14.5182 3.58822 14.4221 3.43416 14.2869C3.2801 14.1517 3.16088 13.9813 3.08663 13.7903C3.01238 13.5992 2.98526 13.3931 3.00759 13.1893C3.02991 12.9856 3.10102 12.7902 3.21488 12.6198L4.7625 10.2983V9.66057C4.7625 6.65038 7.20296 4.12489 10.5023 3.45312" stroke="white" stroke-width="1.3" stroke-linecap="round" stroke-linejoin="round"/>
<path d="M8.58904 21.1313V19.2266L7.7387 19.3711C7.38519 19.4293 7.02352 19.4149 6.67578 19.3286" stroke="white" stroke-width="1.3" stroke-linecap="round" stroke-linejoin="round"/>
<path d="M12.4147 10.9297C12.4147 12.6211 11.7428 14.2433 10.5468 15.4393C9.35078 16.6353 7.72865 17.3072 6.03722 17.3072H4.76172" stroke="white" stroke-width="1.3" stroke-linecap="round" stroke-linejoin="round"/>
</svg>
