<svg width="13" height="13" viewBox="0 0 13 13" fill="none" xmlns="http://www.w3.org/2000/svg">
<g clip-path="url(#clip0_72_20132)">
<path d="M5.25042 9.95858C4.64575 9.95749 4.04706 9.83885 3.48767 9.60926L3.20283 9.48565L3.48767 9.60926C4.06038 9.84525 4.67459 9.96397 5.29399 9.95844C5.91339 9.9529 6.52539 9.8232 7.09379 9.57701C7.13141 9.57701 7.13141 9.57701 7.09379 9.57701C6.51169 9.82829 5.88444 9.95813 5.25042 9.95858ZM8.28151 8.85149C8.38362 8.7655 8.48035 8.67951 8.57171 8.58815L8.63083 8.52903C9.0591 8.09037 9.39693 7.57176 9.62507 7.00274C9.86846 6.39685 9.9855 5.74762 9.96903 5.09487C9.9855 5.74762 9.86846 6.39685 9.62507 7.00274C9.4505 7.44021 9.2094 7.84809 8.91029 8.21195L8.60934 8.58815L8.28151 8.85149ZM2.88574 1.15554C3.05973 1.05761 3.23917 0.969695 3.42317 0.892204C3.59837 0.818767 3.77784 0.755951 3.96059 0.704102C3.77784 0.755951 3.59837 0.818767 3.42317 0.892204C3.23753 0.974343 3.05794 1.06953 2.88574 1.17704V1.15554Z" fill="white" fill-opacity="0.5"/>
<path d="M5.24519 3.16946e-06C4.46511 -0.000853435 3.69463 0.171935 2.98963 0.505841C2.28462 0.839748 1.66279 1.3264 1.16922 1.93049C0.675656 2.53457 0.322742 3.24094 0.136084 3.99836C-0.0505745 4.75578 -0.0662969 5.54525 0.0900547 6.3095C0.246406 7.07375 0.570911 7.79361 1.04003 8.41687C1.50915 9.04013 2.11111 9.55115 2.80226 9.91286C3.49341 10.2746 4.25641 10.4779 5.03591 10.5081C5.8154 10.5383 6.59185 10.3946 7.30892 10.0875C7.76296 9.89556 8.1866 9.63848 8.56649 9.32435L11.8609 12.6456C11.9107 12.6964 11.97 12.7368 12.0355 12.7645C12.101 12.7922 12.1714 12.8066 12.2425 12.8069C12.3492 12.8075 12.4537 12.7763 12.5427 12.7173C12.6317 12.6583 12.701 12.5741 12.742 12.4755C12.7829 12.377 12.7935 12.2684 12.7725 12.1637C12.7515 12.0591 12.6999 11.963 12.6241 11.8879L9.32964 8.59345C9.95744 7.82267 10.3535 6.88951 10.4719 5.90248C10.5902 4.91544 10.4259 3.9151 9.99803 3.01777C9.5702 2.12044 8.89642 1.36301 8.05505 0.833549C7.21368 0.304086 6.23929 0.0243524 5.24519 0.0268761V3.16946e-06ZM5.24519 9.43721C4.28091 9.43695 3.34643 9.10297 2.60043 8.49197C1.85442 7.88098 1.34285 7.03062 1.1526 6.08529C0.962345 5.13996 1.10512 4.15792 1.55669 3.3059C2.00826 2.45389 2.74079 1.78441 3.6299 1.41114C4.51902 1.03787 5.50991 0.983828 6.43434 1.25817C7.35878 1.53251 8.15978 2.11833 8.70135 2.91617C9.24292 3.71402 9.49167 4.67471 9.40537 5.63512C9.31907 6.59554 8.90304 7.49649 8.22791 8.185C7.85075 8.55805 7.40562 8.85541 6.91659 9.06101C6.40742 9.28121 5.85904 9.39637 5.30431 9.39959L5.24519 9.43721Z" fill="white" fill-opacity="0.5"/>
</g>
<defs>
<clipPath id="clip0_72_20132">
<rect width="12.78" height="12.7746" fill="white"/>
</clipPath>
</defs>
</svg>
