<svg width="46" height="46" viewBox="0 0 46 46" fill="none" xmlns="http://www.w3.org/2000/svg">
<g clip-path="url(#clip0_126_17751)">
<path d="M23.2426 31.635C23.028 31.5998 22.8082 31.6117 22.5986 31.6699C22.3891 31.7281 22.1948 31.8312 22.0291 31.972C21.8633 32.1128 21.7301 32.288 21.6388 32.4854C21.5475 32.6828 21.5 32.8977 21.5 33.1152C21.5 33.3327 21.5475 33.5476 21.6388 33.745C21.7301 33.9424 21.8633 34.1176 22.0291 34.2584C22.1948 34.3992 22.3891 34.5022 22.5986 34.5604C22.8082 34.6186 23.028 34.6306 23.2426 34.5955C23.5937 34.5379 23.9129 34.3574 24.1432 34.0863C24.3735 33.8151 24.5 33.471 24.5 33.1152C24.5 32.7594 24.3735 32.4152 24.1432 32.1441C23.9129 31.8729 23.5937 31.6925 23.2426 31.635Z" fill="#D563DF"/>
<path d="M23 26.8745V10.9854" stroke="#D563DF" stroke-width="3" stroke-linecap="round"/>
<path d="M23 44.4854C27.2647 44.4854 31.4336 43.2208 34.9795 40.8514C38.5255 38.4821 41.2892 35.1145 42.9212 31.1745C44.5532 27.2344 44.9801 22.899 44.1481 18.7162C43.3161 14.5335 41.2626 10.6914 38.247 7.67588C35.2314 4.66031 31.3893 2.60667 27.2066 1.77467C23.0239 0.942681 18.6884 1.36971 14.7484 3.00172C10.8084 4.63374 7.44081 7.39748 5.07149 10.9434C2.70217 14.4894 1.4375 18.6582 1.4375 22.9229C1.4375 28.6416 3.70925 34.1261 7.753 38.1699C11.7968 42.2136 17.2813 44.4854 23 44.4854Z" stroke="#D563DF" stroke-width="3"/>
</g>
<defs>
<clipPath id="clip0_126_17751">
<rect width="46" height="46" fill="white"/>
</clipPath>
</defs>
</svg>
