<svg width="24" height="24" viewBox="0 0 24 24" fill="none" xmlns="http://www.w3.org/2000/svg">
<path d="M13.8008 15.6008H13.2008C12.8825 15.6008 12.5773 15.4744 12.3523 15.2494C12.1272 15.0243 12.0008 14.7191 12.0008 14.4008V11.4008C12.0019 11.3217 11.9871 11.2432 11.9573 11.17C11.9276 11.0967 11.8834 11.0301 11.8274 10.9742C11.7715 10.9182 11.705 10.8741 11.6317 10.8443C11.5584 10.8145 11.4799 10.7998 11.4008 10.8008H10.8008" stroke="white" stroke-width="1.5" stroke-linecap="round" stroke-linejoin="round"/>
<path d="M12 21C13.779 21 15.5182 20.4727 16.9977 19.4849C18.4772 18.497 19.6307 17.0928 20.3126 15.4497C20.9945 13.8065 21.1741 11.9982 20.8288 10.253C20.4835 8.50782 19.6287 6.90414 18.3724 5.64452C17.1162 4.3849 15.5148 3.52585 13.7705 3.17587C12.0263 2.8259 10.2174 3.00071 8.57249 3.67822C6.92754 4.35573 5.52031 5.50553 4.5285 6.98241C3.53669 8.45929 3.00478 10.197 3.00003 11.976C2.99687 13.1599 3.22738 14.3328 3.67825 15.4275C4.12913 16.5222 4.79153 17.5172 5.62757 18.3555C6.46361 19.1937 7.45687 19.8588 8.55037 20.3126C9.64386 20.7664 10.8161 21 12 21Z" stroke="white" stroke-width="1.5" stroke-linecap="round" stroke-linejoin="round"/>
<circle cx="12" cy="8" r="1" fill="white"/>
</svg>
