<svg width="130" height="39" viewBox="0 0 130 39" fill="none" xmlns="http://www.w3.org/2000/svg">
<g clip-path="url(#clip0_130_24463)">
<path d="M4.77245 39H-1.52588e-05V9.21667H4.77245V11.4509C6.64202 9.58062 8.76701 8.64547 11.1474 8.64547C12.4726 8.60891 13.7892 8.86911 15.0007 9.40699C16.2121 9.94487 17.2877 10.7468 18.1486 11.754C20.0078 13.8263 20.9374 16.4349 20.9374 19.5796C20.9374 22.657 20.0156 25.2228 18.1719 27.277C17.312 28.2723 16.2419 29.0648 15.0388 29.5976C13.8356 30.1304 12.5292 30.3902 11.2135 30.3583C8.8072 30.3583 6.6537 29.3947 4.75301 27.4674L4.77245 39ZM16.0521 19.6146C16.0521 17.6485 15.518 16.045 14.4496 14.8042C13.9515 14.2036 13.3242 13.7229 12.6144 13.398C11.9046 13.0731 11.1307 12.9122 10.3501 12.9274C9.55288 12.901 8.7596 13.0498 8.02633 13.3633C7.29306 13.6769 6.63768 14.1475 6.10656 14.742C5.02527 15.9492 4.48333 17.5384 4.48074 19.5097C4.41529 21.2449 4.99436 22.9429 6.10656 24.2773C6.62868 24.879 7.27917 25.356 8.01017 25.6734C8.74116 25.9908 9.53407 26.1405 10.3306 26.1114C11.1059 26.129 11.8751 25.9714 12.581 25.6505C13.2868 25.3295 13.9109 24.8535 14.4068 24.2579C15.5209 22.9723 16.1084 21.3141 16.0521 19.6146Z" fill="white"/>
<path d="M29.8172 0V30.3584H25.0681V0.0116564L29.8172 0Z" fill="white"/>
<path d="M50.1322 9.21668H54.9047V29.7638H50.1322V27.6112C48.1745 29.4374 46.0703 30.3519 43.8195 30.3545C42.4901 30.3875 41.1695 30.1286 39.9511 29.5962C38.7327 29.0638 37.646 28.2708 36.7678 27.2732C34.9242 25.1775 34.0023 22.5612 34.0023 19.4242C34.0023 16.3468 34.9242 13.781 36.7678 11.7268C37.6244 10.7356 38.6894 9.94555 39.8868 9.41293C41.0842 8.8803 42.3846 8.61824 43.695 8.64548C46.0884 8.64548 48.2342 9.62983 50.1322 11.5985V9.21668ZM38.8526 19.4242C38.8526 21.3929 39.3803 22.9964 40.4356 24.2346C40.9332 24.8358 41.5604 25.317 42.2703 25.6419C42.9802 25.9669 43.7545 26.1274 44.5352 26.1114C45.3379 26.1435 46.1378 25.9978 46.8775 25.6848C47.6172 25.3717 48.2784 24.8991 48.8137 24.3006C49.8677 22.9344 50.4394 21.258 50.4394 19.533C50.4394 17.808 49.8677 16.1316 48.8137 14.7653C48.2908 14.1655 47.6408 13.6893 46.9109 13.3715C46.181 13.0536 45.3894 12.9019 44.5935 12.9274C43.8153 12.9154 43.0441 13.0757 42.3353 13.3969C41.6264 13.718 40.9976 14.192 40.494 14.7848C39.3923 16.0755 38.8088 17.7286 38.8565 19.4242H38.8526Z" fill="white"/>
<path d="M71.9914 12.7176L68.063 14.8042C67.4446 13.5414 66.6745 12.908 65.7604 12.908C65.345 12.9001 64.9429 13.0549 64.6402 13.3393C64.4884 13.4802 64.3685 13.6519 64.2886 13.8429C64.2088 14.0339 64.1709 14.2398 64.1774 14.4467C64.1774 15.2239 65.0927 16.001 66.9234 16.7781C69.4438 17.8609 71.1396 18.8595 72.0109 19.7739C72.8821 20.6883 73.3191 21.9188 73.3217 23.4653C73.3396 24.4046 73.1523 25.3366 72.7727 26.1963C72.3932 27.056 71.8306 27.8226 71.1241 28.4427C69.7102 29.7072 67.8676 30.3866 65.9704 30.3428C62.5243 30.3428 60.083 28.6591 58.6464 25.2915L62.6994 23.4148C63.0464 24.0928 63.4791 24.7235 63.9868 25.2915C64.5452 25.8184 65.288 26.1058 66.056 26.092C67.6637 26.092 68.4662 25.3614 68.4636 23.9005C68.4636 23.0586 67.8439 22.2711 66.6044 21.538C66.126 21.2971 65.6476 21.0678 65.1692 20.8425C64.6908 20.6171 64.2046 20.384 63.7145 20.1431C62.335 19.4696 61.3626 18.7947 60.7974 18.1186C60.0529 17.1796 59.6706 16.0049 59.72 14.8081C59.6963 13.9819 59.848 13.16 60.1651 12.3965C60.4822 11.633 60.9575 10.9453 61.5597 10.3785C62.7895 9.21841 64.4272 8.58884 66.1182 8.62607C68.7527 8.63903 70.7105 10.0029 71.9914 12.7176Z" fill="white"/>
<path d="M76.7289 9.21677H81.4819V11.1129C82.1557 10.3498 82.9428 9.69456 83.8156 9.17012C84.6277 8.79133 85.5182 8.61024 86.4139 8.64168C88.7476 8.64168 90.5847 9.65453 91.9253 11.6802C92.604 10.7115 93.5132 9.9266 94.571 9.39618C95.6289 8.86576 96.8022 8.60648 97.9852 8.64168C102.616 8.64168 104.932 11.4471 104.932 17.058V29.7601H100.159V18.3518C100.159 16.3805 99.9209 14.9882 99.4438 14.1748C98.9667 13.3614 98.1564 12.9457 97.0128 12.9275C95.7163 12.9275 94.7634 13.4197 94.154 14.4041C93.5447 15.3884 93.2452 16.9712 93.2555 19.1523V29.7639H88.4831V18.414C88.4831 14.7564 87.4277 12.9275 85.317 12.9275C83.979 12.9275 83.004 13.4275 82.3921 14.4274C81.7801 15.4273 81.4741 17.0022 81.4741 19.1523V29.7639H76.7289V9.21677Z" fill="white"/>
<path d="M125.228 9.21664H130.016V29.7638H125.243V27.6112C123.285 29.4374 121.181 30.3518 118.93 30.3544C117.6 30.3877 116.279 30.129 115.06 29.5966C113.841 29.0642 112.754 28.2711 111.875 27.2731C110.031 25.1775 109.109 22.5612 109.109 19.4242C109.109 16.3467 110.031 13.7809 111.875 11.7267C112.731 10.7358 113.797 9.94585 114.994 9.41325C116.191 8.88064 117.492 8.61848 118.802 8.64544C121.193 8.64544 123.34 9.62979 125.243 11.5985L125.228 9.21664ZM113.948 19.4242C113.948 21.3929 114.476 22.9963 115.531 24.2346C116.028 24.8355 116.654 25.3165 117.364 25.6414C118.073 25.9664 118.846 26.1271 119.627 26.1113C120.429 26.1435 121.229 25.9978 121.969 25.6847C122.709 25.3717 123.37 24.899 123.905 24.3006C124.959 22.9343 125.531 21.2579 125.531 19.533C125.531 17.808 124.959 16.1316 123.905 14.7653C123.381 14.1656 122.731 13.6895 122 13.3717C121.27 13.0539 120.477 12.9021 119.681 12.9274C118.903 12.9149 118.132 13.075 117.424 13.3962C116.716 13.7173 116.088 14.1916 115.585 14.7847C114.483 16.0751 113.901 17.7288 113.952 19.4242H113.948Z" fill="white"/>
</g>
<defs>
<clipPath id="clip0_130_24463">
<rect width="130" height="39" fill="white"/>
</clipPath>
</defs>
</svg>
