<svg width="24" height="24" viewBox="0 0 24 24" fill="none" xmlns="http://www.w3.org/2000/svg">
<path d="M19.4651 17.1992V18.4659C19.4651 18.8018 19.3317 19.124 19.0941 19.3616C18.8566 19.5991 18.5344 19.7326 18.1984 19.7326H14.3984" stroke="white" stroke-width="1.5" stroke-linecap="round" stroke-linejoin="round"/>
<path d="M14.3984 4.53125H18.1984C18.5344 4.53125 18.8566 4.66469 19.0941 4.90224C19.3317 5.13979 19.4651 5.46198 19.4651 5.79792V7.06458" stroke="white" stroke-width="1.5" stroke-linecap="round" stroke-linejoin="round"/>
<path d="M11.1489 20.9979L3.54888 19.9086C3.39738 19.8882 3.25836 19.8137 3.15748 19.6988C3.0566 19.584 3.00067 19.4365 3 19.2837V4.5059C3.00094 4.36062 3.05181 4.22009 3.14406 4.10785C3.2363 3.99562 3.36433 3.9185 3.50667 3.88945L11.1067 2.01478C11.1985 1.99444 11.2938 1.99511 11.3853 2.01671C11.4769 2.03832 11.5624 2.08033 11.6355 2.13959C11.7085 2.19885 11.7673 2.27384 11.8073 2.35897C11.8473 2.4441 11.8676 2.53716 11.8667 2.63123V20.3646C11.8674 20.4552 11.849 20.5449 11.8127 20.6278C11.7763 20.7108 11.7227 20.7851 11.6556 20.8459C11.5862 20.9049 11.5054 20.9488 11.4182 20.975C11.331 21.0012 11.2393 21.009 11.1489 20.9979V20.9979Z" stroke="white" stroke-width="1.5" stroke-linecap="round" stroke-linejoin="round"/>
<path d="M19.4685 9.59766L22.0018 12.131H15.0352" stroke="white" stroke-width="1.5" stroke-linecap="round" stroke-linejoin="round"/>
<path d="M19.4648 14.6661L21.9982 12.1328" stroke="white" stroke-width="1.5" stroke-linecap="round" stroke-linejoin="round"/>
<path d="M9.0218 11.1842C8.95893 11.1841 8.89738 11.2024 8.84484 11.237C8.79229 11.2715 8.75106 11.3207 8.72624 11.3784C8.70235 11.4371 8.69682 11.5016 8.71039 11.5634C8.72396 11.6252 8.75599 11.6814 8.80224 11.7247C8.84643 11.7695 8.90312 11.7999 8.9649 11.812C9.02668 11.824 9.09066 11.8172 9.14846 11.7922C9.20604 11.768 9.25477 11.7267 9.28801 11.6738C9.32125 11.6209 9.33739 11.5591 9.33424 11.4967C9.33392 11.4115 9.30064 11.3298 9.24136 11.2687C9.21292 11.2392 9.1788 11.2158 9.14107 11.1998C9.10334 11.1838 9.06277 11.1757 9.0218 11.1758" stroke="white" stroke-width="1.5" stroke-linecap="round" stroke-linejoin="round"/>
</svg>
