<?xml version="1.0" encoding="utf-8"?>
<!-- Generator: Adobe Illustrator 26.0.3, SVG Export Plug-In . SVG Version: 6.00 Build 0)  -->
<svg version="1.1" id="레이어_1" xmlns="http://www.w3.org/2000/svg" xmlns:xlink="http://www.w3.org/1999/xlink" x="0px"
	 y="0px" viewBox="0 0 24 24" style="enable-background:new 0 0 24 24;" xml:space="preserve">
<style type="text/css">
	.st0{fill:#FFFFFF;}
</style>
<path class="st0" d="M12,12c3.3,0,6-2.7,6-6c0-3.3-2.7-6-6-6C8.7,0,6,2.7,6,6C6,9.3,8.7,12,12,12z M12,1.8c2.3,0,4.2,1.9,4.2,4.2
	c0,2.3-1.9,4.2-4.2,4.2c-2.3,0-4.2-1.9-4.2-4.2C7.8,3.7,9.7,1.8,12,1.8z"/>
<path class="st0" d="M12,13C6.5,13,2,17.6,2,23.1C2,23.6,2.4,24,2.9,24c0.5,0,0.9-0.4,0.9-0.9c0-4.6,3.7-8.4,8.3-8.4
	c4.6,0,8.3,3.8,8.3,8.4c0,0.5,0.4,0.9,0.9,0.9s0.9-0.4,0.9-0.9C22,17.5,17.5,13,12,13z"/>
</svg>
