<svg width="22" height="22" viewBox="0 0 22 22" fill="none" xmlns="http://www.w3.org/2000/svg">
<path d="M19.7153 1.94262e-05H2.2752C1.67177 1.94262e-05 1.09307 0.239728 0.666382 0.666413C0.239698 1.0931 -1.10914e-05 1.67181 -1.10914e-05 2.27523V19.7154C-0.00124902 20.015 0.0566893 20.3118 0.170475 20.589C0.284261 20.8661 0.451658 21.118 0.663054 21.3303C0.87445 21.5426 1.12568 21.711 1.40234 21.8259C1.67899 21.9408 1.97562 22 2.2752 22H19.7153C20.3213 22 20.9024 21.7593 21.3308 21.3309C21.7593 20.9024 22 20.3213 22 19.7154V2.27523C22 1.97565 21.9408 1.67903 21.8259 1.40237C21.711 1.12571 21.5425 0.874481 21.3302 0.663085C21.118 0.451689 20.8661 0.284291 20.5889 0.170506C20.3118 0.0567199 20.0149 -0.0012185 19.7153 1.94262e-05ZM20.1196 19.7436C20.1172 19.8501 20.0739 19.9515 19.9986 20.0268C19.9233 20.1021 19.8218 20.1455 19.7153 20.1479H2.2752C2.16962 20.1454 2.06919 20.1017 1.9954 20.0262C1.9216 19.9506 1.8803 19.8492 1.88033 19.7436V2.27523C1.88033 2.1705 1.92193 2.07007 1.99598 1.99602C2.07004 1.92196 2.17047 1.88036 2.2752 1.88036H19.7153C19.821 1.88033 19.9224 1.92163 19.9979 1.99543C20.0735 2.06922 20.1172 2.16965 20.1196 2.27523V19.7436Z" fill="white"/>
<path d="M17.0359 4.02441H8.98802C8.73867 4.02441 8.49954 4.12347 8.32322 4.29978C8.1469 4.4761 8.04785 4.71524 8.04785 4.96458C8.04785 5.21393 8.1469 5.45307 8.32322 5.62939C8.49954 5.8057 8.73867 5.90475 8.98802 5.90475H17.0359C17.2852 5.90475 17.5244 5.8057 17.7007 5.62939C17.877 5.45307 17.976 5.21393 17.976 4.96458C17.976 4.71524 17.877 4.4761 17.7007 4.29978C17.5244 4.12347 17.2852 4.02441 17.0359 4.02441Z" fill="white"/>
<path d="M17.0359 12.0713H4.9641C4.71475 12.0713 4.47561 12.1703 4.29929 12.3467C4.12298 12.523 4.02393 12.7621 4.02393 13.0115C4.02393 13.2608 4.12298 13.4999 4.29929 13.6763C4.47561 13.8526 4.71475 13.9516 4.9641 13.9516H17.0359C17.2852 13.9516 17.5244 13.8526 17.7007 13.6763C17.877 13.4999 17.9761 13.2608 17.9761 13.0115C17.9761 12.7621 17.877 12.523 17.7007 12.3467C17.5244 12.1703 17.2852 12.0713 17.0359 12.0713Z" fill="white"/>
<path d="M17.0359 8.04688H4.9641C4.71475 8.04688 4.47561 8.14593 4.29929 8.32224C4.12298 8.49856 4.02393 8.7377 4.02393 8.98705C4.02393 9.23639 4.12298 9.47553 4.29929 9.65185C4.47561 9.82816 4.71475 9.92722 4.9641 9.92722H17.0359C17.2852 9.92722 17.5244 9.82816 17.7007 9.65185C17.877 9.47553 17.9761 9.23639 17.9761 8.98705C17.9761 8.7377 17.877 8.49856 17.7007 8.32224C17.5244 8.14593 17.2852 8.04688 17.0359 8.04688Z" fill="white"/>
<path d="M11.6675 16.1436H4.9641C4.71475 16.1436 4.47561 16.2426 4.29929 16.4189C4.12298 16.5952 4.02393 16.8344 4.02393 17.0837C4.02393 17.3331 4.12298 17.5722 4.29929 17.7485C4.47561 17.9248 4.71475 18.0239 4.9641 18.0239H11.6675C11.9169 18.0239 12.156 17.9248 12.3323 17.7485C12.5086 17.5722 12.6077 17.3331 12.6077 17.0837C12.6077 16.8344 12.5086 16.5952 12.3323 16.4189C12.156 16.2426 11.9169 16.1436 11.6675 16.1436Z" fill="white"/>
</svg>
