<svg width="24" height="24" viewBox="0 0 24 24" fill="none" xmlns="http://www.w3.org/2000/svg">
<g clip-path="url(#clip0_90_22688)">
<path d="M13.5958 20.6004H9.69349C9.54464 20.6004 9.39784 20.6358 9.2647 20.7038C9.13157 20.7719 9.01575 20.8706 8.92644 20.9923C8.84093 21.1159 8.78289 21.2571 8.75639 21.4061C8.72989 21.555 8.73557 21.7081 8.77304 21.8545C8.9516 22.4933 9.32894 23.0553 9.84794 23.4554C10.3669 23.8554 10.9993 24.0718 11.6494 24.0718C12.2996 24.0718 12.932 23.8554 13.451 23.4554C13.97 23.0553 14.3473 22.4933 14.5259 21.8545C14.5686 21.7053 14.5759 21.5478 14.5473 21.3951C14.5187 21.2423 14.4549 21.0987 14.3612 20.9762C14.2675 20.8537 14.1466 20.7556 14.0085 20.6903C13.8704 20.625 13.7191 20.5941 13.5671 20.6004H13.5958Z" fill="#4B73FF"/>
<path d="M20.8806 17.9269C20.8806 17.9269 19.7369 16.5746 19.7369 10.5378C19.7324 8.49841 18.9972 6.53125 17.6702 5.00794C16.3432 3.48462 14.5163 2.51061 12.5346 2.26984V0.965888C12.5346 0.709719 12.435 0.464041 12.2577 0.282901C12.0805 0.101762 11.84 0 11.5894 0C11.3387 0 11.0983 0.101762 10.921 0.282901C10.7438 0.464041 10.6442 0.709719 10.6442 0.965888V2.26984C8.66157 2.50859 6.83347 3.48203 5.50611 5.00578C4.17875 6.52954 3.44428 8.49781 3.4418 10.5378C3.4418 16.1979 2.20361 18.0331 2.20361 18.0331C2.09374 18.1752 2.02517 18.346 2.00571 18.5259C1.98626 18.7059 2.01671 18.8879 2.09358 19.051C2.17045 19.2142 2.29065 19.3519 2.44046 19.4486C2.59027 19.5453 2.76366 19.597 2.94085 19.5979H20.2284C20.4299 19.6115 20.6304 19.5589 20.8005 19.4477C20.9706 19.3364 21.1013 19.1724 21.1736 18.9797C21.2347 18.7945 21.2394 18.5948 21.1871 18.4068C21.1348 18.2188 21.0279 18.0515 20.8806 17.9269Z" fill="#4B73FF"/>
</g>
<defs>
<clipPath id="clip0_90_22688">
<rect width="24" height="24" fill="white"/>
</clipPath>
</defs>
</svg>
