<svg width="24" height="24" viewBox="0 0 24 24" fill="none" xmlns="http://www.w3.org/2000/svg">
<path d="M22.7406 21.4899L17.3281 16.0765C17.8667 15.4142 18.3082 14.6724 18.6349 13.8599C19.5002 11.7228 19.4737 9.37376 18.573 7.25432C16.71 2.87414 11.633 0.825346 7.25349 2.68869C2.874 4.55203 0.825532 9.62986 2.68858 14.01C3.5892 16.1295 5.26682 17.772 7.40359 18.6375C8.44548 19.0614 9.54036 19.2733 10.6352 19.2733C11.7831 19.2733 12.9221 19.0437 14.0081 18.5845C14.7675 18.2666 15.465 17.8339 16.0831 17.3305L21.4956 22.7439C21.6722 22.9205 21.893 23 22.1225 23C22.3521 23 22.5729 22.9117 22.7494 22.7439C23.085 22.3907 23.085 21.8343 22.7406 21.4899ZM13.3194 16.9508C11.633 17.6661 9.76992 17.6837 8.06581 16.9949C6.3617 16.3061 5.03726 14.9991 4.31323 13.3124C2.82985 9.83297 4.46333 5.7972 7.9422 4.31359C8.81633 3.94269 9.72578 3.76607 10.6176 3.76607C13.2929 3.76607 15.8359 5.33799 16.9484 7.94314C17.6636 9.62986 17.6813 11.4932 16.9925 13.1976C16.6482 14.0542 16.1449 14.8137 15.5268 15.4495C15.518 15.4583 15.5003 15.4672 15.4827 15.476C15.4739 15.4848 15.4739 15.4936 15.465 15.5025C14.8558 16.1118 14.1318 16.6064 13.3194 16.9508Z" fill="#4B73FF"/>
</svg>
