<svg width="21" height="5" viewBox="0 0 21 5" fill="none" xmlns="http://www.w3.org/2000/svg">
<path d="M2.3378 4.67557C2.80055 4.67557 3.25289 4.53823 3.63752 4.28096C4.02216 4.02369 4.32179 3.65803 4.49847 3.23034C4.67515 2.80265 4.72091 2.33215 4.62998 1.87843C4.53905 1.4247 4.31554 1.00815 3.9877 0.681567C3.65987 0.35498 3.24247 0.133042 2.7884 0.0438445C2.33433 -0.0453529 1.86402 0.00220429 1.437 0.180509C1.00999 0.358814 0.645499 0.659832 0.389692 1.04544C0.133886 1.43106 -0.00174259 1.88392 1.69045e-05 2.34666C1.46714e-05 2.65324 0.0605651 2.95681 0.178158 3.23994C0.295751 3.52308 0.468093 3.78022 0.685293 3.99659C0.902492 4.21296 1.16026 4.38434 1.44384 4.50085C1.72742 4.61736 2.03122 4.67674 2.3378 4.67557Z" fill="white"/>
<path d="M17.6711 4.67557C18.1338 4.67557 18.5861 4.53823 18.9708 4.28096C19.3554 4.02369 19.655 3.65803 19.8317 3.23034C20.0084 2.80265 20.0542 2.33215 19.9632 1.87843C19.8723 1.4247 19.6488 1.00815 19.321 0.681567C18.9931 0.35498 18.5757 0.133042 18.1217 0.0438445C17.6676 -0.0453529 17.1973 0.00220429 16.7703 0.180509C16.3432 0.358814 15.9788 0.659832 15.7229 1.04544C15.4671 1.43106 15.3315 1.88392 15.3333 2.34666C15.3333 2.65324 15.3938 2.95681 15.5114 3.23994C15.629 3.52308 15.8013 3.78022 16.0185 3.99659C16.2357 4.21296 16.4935 4.38434 16.7771 4.50085C17.0607 4.61736 17.3645 4.67674 17.6711 4.67557Z" fill="white"/>
<path d="M10 4.67554C10.4632 4.6773 10.9164 4.54145 11.3022 4.28524C11.688 4.02904 11.989 3.66403 12.1671 3.2365C12.3451 2.80896 12.3921 2.33819 12.3022 1.88388C12.2123 1.42957 11.9895 1.01219 11.662 0.684713C11.3345 0.357234 10.9171 0.134415 10.4628 0.0444945C10.0085 -0.0454256 9.53774 0.00159824 9.11021 0.17964C8.68267 0.357682 8.31766 0.658717 8.06146 1.04452C7.80526 1.43033 7.6694 1.88351 7.67116 2.34663C7.67116 2.96429 7.91654 3.55666 8.35329 3.99342C8.79004 4.43017 9.38238 4.67554 10 4.67554Z" fill="white"/>
</svg>
