<?xml version="1.0" encoding="utf-8"?>
<!-- Generator: Adobe Illustrator 26.0.3, SVG Export Plug-In . SVG Version: 6.00 Build 0)  -->
<svg version="1.1" id="레이어_1" xmlns="http://www.w3.org/2000/svg" xmlns:xlink="http://www.w3.org/1999/xlink" x="0px"
	 y="0px" viewBox="0 0 24 24" style="enable-background:new 0 0 24 24;" xml:space="preserve">
<style type="text/css">
	.st0{fill:#FFFFFF;}
</style>
<path class="st0" d="M13.8,20.6c-0.5-0.2-1,0.1-1.2,0.7c-0.1,0.5-0.5,0.8-1,0.8c-0.5,0-0.9-0.3-1-0.8c-0.1-0.5-0.7-0.8-1.2-0.7
	c-0.5,0.2-0.8,0.7-0.7,1.2c0.4,1.3,1.5,2.2,2.8,2.2c1.3,0,2.5-0.9,2.8-2.2C14.6,21.3,14.3,20.8,13.8,20.6z"/>
<path class="st0" d="M20.9,17.9c0,0-1.1-1.4-1.1-7.4c0-4.3-3.2-7.8-7.2-8.3V1c0-0.5-0.4-1-0.9-1c-0.5,0-0.9,0.4-0.9,1v1.3
	c-4,0.5-7.2,4-7.2,8.3c0,5.7-1.2,7.5-1.2,7.5c-0.2,0.3-0.3,0.7-0.1,1c0.2,0.3,0.5,0.5,0.9,0.5h17.3c0.4,0,0.8-0.2,0.9-0.6
	C21.3,18.6,21.2,18.2,20.9,17.9z M4.4,17.7c0.4-1.3,0.9-3.5,0.9-7.1c0-3.5,2.8-6.4,6.3-6.4s6.3,2.9,6.3,6.4c0,3.7,0.4,5.8,0.8,7.1
	H4.4z"/>
</svg>
