<?xml version="1.0" encoding="utf-8"?>
<!-- Generator: Adobe Illustrator 26.0.3, SVG Export Plug-In . SVG Version: 6.00 Build 0)  -->
<svg version="1.1" id="레이어_1" xmlns="http://www.w3.org/2000/svg" xmlns:xlink="http://www.w3.org/1999/xlink" x="0px"
	 y="0px" viewBox="0 0 24 24" style="enable-background:new 0 0 24 24;" xml:space="preserve">
<style type="text/css">
	.st0{fill:#4B73FF;}
</style>
<path class="st0" d="M12,12c1.2,0,2.4-0.4,3.4-1c1-0.7,1.8-1.6,2.2-2.7C18.1,7.2,18.2,6,18,4.8c-0.2-1.2-0.8-2.2-1.7-3.1
	c-0.9-0.8-1.9-1.4-3.1-1.6C12-0.1,10.8,0,9.7,0.5C8.6,0.9,7.6,1.7,7,2.7c-0.7,1-1,2.1-1,3.3c0,1.6,0.6,3.1,1.8,4.2
	C8.9,11.3,10.4,12,12,12z"/>
<path class="st0" d="M12,12.7c-2.8,0-5.5,1.1-7.4,3s-3.1,4.6-3.1,7.3c0,0.2,0.1,0.5,0.3,0.6C1.9,23.9,2.2,24,2.4,24h19.2
	c0.2,0,0.5-0.1,0.6-0.3c0.2-0.2,0.3-0.4,0.3-0.6c0-2.7-1.1-5.4-3.1-7.3C17.5,13.9,14.8,12.8,12,12.7z"/>
</svg>
