<svg width="24" height="24" viewBox="0 0 24 24" fill="none" xmlns="http://www.w3.org/2000/svg">
<path d="M20.7528 1H3.24721C2.0103 1 1 2.0103 1 3.24721V20.7622C1 21.9991 2.0103 23.0094 3.24721 23.0094H20.7622C21.9991 23.0094 23.0094 21.9991 23.0094 20.7622V3.24721C23 2.0103 21.9991 1 20.7528 1ZM12.6704 18.9588H5.9382C5.43777 18.9588 5.0412 18.5528 5.0412 18.0618C5.0412 17.5708 5.44721 17.1648 5.9382 17.1648H12.6704C13.1708 17.1648 13.5674 17.5708 13.5674 18.0618C13.5674 18.5528 13.1708 18.9588 12.6704 18.9588ZM18.0618 14.9176H5.9382C5.43777 14.9176 5.0412 14.5116 5.0412 14.0206C5.0412 13.5296 5.44721 13.1236 5.9382 13.1236H18.0618C18.5622 13.1236 18.9588 13.5296 18.9588 14.0206C18.9588 14.5116 18.5622 14.9176 18.0618 14.9176ZM18.0618 10.8764H5.9382C5.43777 10.8764 5.0412 10.4704 5.0412 9.9794C5.0412 9.47897 5.44721 9.0824 5.9382 9.0824H18.0618C18.5622 9.0824 18.9588 9.48841 18.9588 9.9794C18.9588 10.4798 18.5622 10.8764 18.0618 10.8764ZM18.0618 6.83519H9.9794C9.47897 6.83519 9.0824 6.42918 9.0824 5.9382C9.0824 5.44721 9.48841 5.0412 9.9794 5.0412H18.0618C18.5622 5.0412 18.9588 5.44721 18.9588 5.9382C18.9588 6.42918 18.5622 6.83519 18.0618 6.83519Z" fill="#4B73FF"/>
</svg>
