<svg width="12" height="14" viewBox="0 0 12 14" fill="none" xmlns="http://www.w3.org/2000/svg">
<path d="M5.32842 4.70037C5.28789 4.71662 5.23579 4.7112 5.19526 4.68412C5.15474 4.66245 5.13158 4.61912 5.13158 4.57579V3.98537C5.13158 3.87704 5.20105 3.77412 5.31105 3.7362L9.65316 2.07329C9.74 2.04079 9.84421 2.0462 9.92526 2.10037C10.0063 2.14912 10.0526 2.23579 10.0526 2.32787V2.80454C10.0526 2.8587 10.0179 2.90745 9.96 2.92912L5.32842 4.70037ZM11.5 1.7212C11.5 1.31495 11.2858 0.935787 10.9211 0.708287C10.5621 0.480787 10.1047 0.437453 9.70526 0.58912L4.49474 2.58245C4.00263 2.77204 3.68421 3.22162 3.68421 3.71454V9.0337C3.68421 9.10954 3.62053 9.16912 3.53947 9.16912H2.81579C1.53632 9.16912 0.5 10.1387 0.5 11.3358C0.5 12.5329 1.53632 13.5025 2.81579 13.5025C4.08368 13.4754 5.10263 12.522 5.13158 11.3358V6.33079C5.13158 6.27662 5.16632 6.22787 5.21842 6.2062L9.85 4.43495C9.89632 4.4187 9.94263 4.42412 9.98316 4.44579C10.0237 4.47287 10.0468 4.51079 10.0468 4.55954V6.87245C10.0468 6.94829 9.98316 7.00787 9.90211 7.00787H9.18421C7.90474 7.00787 6.86842 7.97745 6.86842 9.17454C6.86842 10.3716 7.90474 11.3412 9.18421 11.3412C10.4521 11.3141 11.4711 10.3608 11.5 9.17454V1.7212Z" fill="white"/>
</svg>
