<svg width="24" height="22" viewBox="0 0 24 22" fill="none" xmlns="http://www.w3.org/2000/svg">
<path d="M18.6543 21.8264H5.32995C5.14064 21.8264 4.95908 21.7512 4.82521 21.6173C4.69135 21.4834 4.61615 21.3019 4.61615 21.1126C4.61615 20.9233 4.69135 20.7418 4.82521 20.608C4.95908 20.4741 5.14064 20.3988 5.32995 20.3988H18.6543C19.4746 20.3988 20.2614 20.0729 20.8414 19.4929C21.4215 18.9128 21.7474 18.126 21.7474 17.3057V5.21868C21.7474 5.02937 21.8226 4.84764 21.9565 4.71377C22.0903 4.57991 22.2719 4.50488 22.4612 4.50488C22.6505 4.50488 22.8321 4.57991 22.9659 4.71377C23.0998 4.84764 23.175 5.02937 23.175 5.21868V17.2866C23.1775 17.8819 23.0624 18.4719 22.8364 19.0226C22.6103 19.5733 22.2777 20.0737 21.8577 20.4955C21.4376 20.9173 20.9384 21.2521 20.3887 21.4805C19.8389 21.7088 19.2495 21.8264 18.6543 21.8264Z" fill="#4B73FF"/>
<path d="M13.4578 12.1949C14.0517 12.1949 14.5332 11.7134 14.5332 11.1194C14.5332 10.5254 14.0517 10.0439 13.4578 10.0439C12.8638 10.0439 12.3823 10.5254 12.3823 11.1194C12.3823 11.7134 12.8638 12.1949 13.4578 12.1949Z" fill="#4B73FF"/>
<path d="M6.31975 14.3365C6.91371 14.3365 7.39522 13.855 7.39522 13.261C7.39522 12.667 6.91371 12.1855 6.31975 12.1855C5.72579 12.1855 5.24429 12.667 5.24429 13.261C5.24429 13.855 5.72579 14.3365 6.31975 14.3365Z" fill="#4B73FF"/>
<path d="M18.1784 0.412109H2.47474C1.90681 0.412109 1.36214 0.63765 0.960543 1.03924C0.558952 1.44083 0.333338 1.98558 0.333338 2.55351V16.8295C0.333338 17.3975 0.558952 17.9422 0.960543 18.3438C1.36214 18.7454 1.90681 18.971 2.47474 18.971H18.1784C18.7463 18.971 19.291 18.7454 19.6926 18.3438C20.0942 17.9422 20.3198 17.3975 20.3198 16.8295V2.55351C20.3198 1.98558 20.0942 1.44083 19.6926 1.03924C19.291 0.63765 18.7463 0.412109 18.1784 0.412109ZM15.9608 11.1191C15.9608 11.6146 15.8138 12.0989 15.5383 12.5107C15.2629 12.9226 14.8714 13.2433 14.4134 13.4325C13.9555 13.6217 13.4518 13.6706 12.9659 13.5733C12.4801 13.4759 12.0341 13.2368 11.6845 12.8857C11.3348 12.5347 11.0972 12.0877 11.0017 11.6015C10.9062 11.1153 10.9571 10.6118 11.148 10.1546C11.3389 9.69741 11.6612 9.30716 12.0741 9.03326C12.487 8.75937 12.9718 8.61407 13.4673 8.61595C13.8378 8.61745 14.2028 8.70546 14.5332 8.87294V5.76074C14.5345 5.64869 14.5083 5.53825 14.4568 5.4387C14.4054 5.33914 14.3303 5.25365 14.2382 5.18984C14.1484 5.12204 14.0434 5.07703 13.9323 5.05879C13.8212 5.04055 13.7074 5.04954 13.6005 5.08505L9.27965 6.28424C9.14588 6.33725 9.03095 6.42906 8.94958 6.54774C8.8682 6.66641 8.82407 6.80652 8.82283 6.95041V13.2605C8.82282 13.756 8.67578 14.2403 8.40031 14.6521C8.12485 15.064 7.73336 15.3847 7.27543 15.5739C6.8175 15.7631 6.31373 15.8121 5.82793 15.7147C5.34212 15.6173 4.89612 15.3782 4.54644 15.0272C4.19677 14.6761 3.95914 14.2291 3.86363 13.7429C3.76813 13.2567 3.81905 12.7532 4.00996 12.296C4.20087 11.8388 4.52319 11.4486 4.93606 11.1747C5.34894 10.9008 5.83381 10.7555 6.32927 10.7574C6.69974 10.7589 7.06476 10.8469 7.39522 11.0143V6.95041C7.39623 6.50153 7.53826 6.06433 7.80127 5.70056C8.06427 5.3368 8.43494 5.06497 8.86089 4.92333L13.1818 3.72413C13.5006 3.62105 13.8392 3.59498 14.1701 3.64792C14.5009 3.70085 14.8145 3.83134 15.0853 4.02875C15.3591 4.2271 15.582 4.48749 15.7358 4.78856C15.8897 5.08963 15.97 5.42265 15.9704 5.76074L15.9608 11.1191Z" fill="#4B73FF"/>
</svg>
