<svg width="24" height="24" viewBox="0 0 24 24" fill="none" xmlns="http://www.w3.org/2000/svg">
<path fill-rule="evenodd" clip-rule="evenodd" d="M15.9202 12.7988C15.9725 12.5407 16 12.2736 16 12C16 9.79086 14.2091 8 12 8C11.7264 8 11.4593 8.02746 11.2012 8.07977L12.3421 9.22069C13.615 9.37575 14.6243 10.385 14.7793 11.6579L15.9202 12.7988ZM9.54012 10.6614C9.32325 11.059 9.2 11.5151 9.2 12C9.2 13.5464 10.4536 14.8 12 14.8C12.4849 14.8 12.941 14.6768 13.3386 14.4599L14.212 15.3332C13.5784 15.7545 12.8179 16 12 16C9.79086 16 8 14.2091 8 12C8 11.1821 8.24547 10.4216 8.66676 9.78799L9.54012 10.6614Z" fill="white"/>
<path fill-rule="evenodd" clip-rule="evenodd" d="M16.227 17.3481L15.3457 16.4668C14.2997 17.0319 13.1684 17.3999 12.0002 17.3999C10.3575 17.3999 8.78791 16.6723 7.42568 15.6923C6.0682 14.7156 4.96741 13.5245 4.27526 12.6842C4.07017 12.4352 3.95918 12.298 3.89072 12.1832C3.83765 12.0942 3.82988 12.0507 3.82988 11.9999C3.82988 11.9491 3.83765 11.9056 3.89072 11.8166C3.95918 11.7018 4.07017 11.5646 4.27526 11.3156C4.94375 10.504 5.99341 9.36522 7.28736 8.40844L6.43016 7.55123C5.09532 8.56374 4.02769 9.72872 3.349 10.5527L3.28546 10.6295C2.95985 11.0224 2.62988 11.4205 2.62988 11.9999C2.62988 12.5793 2.95984 12.9774 3.28546 13.3703L3.34899 13.4471C4.07693 14.3309 5.25229 15.6069 6.72487 16.6664C8.1927 17.7224 10.0071 18.5999 12.0002 18.5999C13.542 18.5999 14.9768 18.0748 16.227 17.3481ZM9.11317 5.9916C10.0142 5.62802 10.9839 5.3999 12.0002 5.3999C13.9933 5.3999 15.8076 6.2774 17.2754 7.33344C18.748 8.3929 19.9234 9.66894 20.6513 10.5527L20.7149 10.6295C21.0405 11.0224 21.3704 11.4205 21.3704 11.9999C21.3704 12.5793 21.0405 12.9774 20.7149 13.3703L20.6513 13.4471C20.1696 14.0319 19.492 14.7885 18.662 15.5404L17.8124 14.6908C18.6049 13.978 19.258 13.2512 19.7251 12.6842C19.9301 12.4352 20.0411 12.298 20.1096 12.1832C20.1627 12.0942 20.1704 12.0507 20.1704 11.9999C20.1704 11.9491 20.1627 11.9056 20.1096 11.8166C20.0411 11.7018 19.9301 11.5646 19.7251 11.3156C19.0329 10.4753 17.9321 9.28419 16.5746 8.30754C15.2124 7.32748 13.6428 6.5999 12.0002 6.5999C11.3346 6.5999 10.6809 6.71936 10.0482 6.92668L9.11317 5.9916Z" fill="white"/>
<path d="M5 2L21 18" stroke="white" stroke-width="1.2"/>
</svg>
