<svg width="18" height="18" viewBox="0 0 18 18" fill="none" xmlns="http://www.w3.org/2000/svg">
<path d="M0.890625 1.97098C0.890625 1.82909 0.918579 1.6886 0.972878 1.55751C1.02718 1.42642 1.10677 1.30731 1.2071 1.20698C1.30743 1.10664 1.42654 1.02705 1.55763 0.972755C1.68872 0.918457 1.82921 0.890503 1.9711 0.890503H16.0291C16.171 0.890503 16.3115 0.918457 16.4426 0.972755C16.5737 1.02705 16.6928 1.10664 16.7932 1.20698C16.8935 1.30731 16.9731 1.42642 17.0274 1.55751C17.0817 1.6886 17.1096 1.82909 17.1096 1.97098V16.029C17.1096 16.1709 17.0817 16.3114 17.0274 16.4425C16.9731 16.5736 16.8935 16.6927 16.7932 16.793C16.6928 16.8934 16.5737 16.973 16.4426 17.0273C16.3115 17.0816 16.171 17.1095 16.0291 17.1095H1.9711C1.82921 17.1095 1.68872 17.0816 1.55763 17.0273C1.42654 16.973 1.30743 16.8934 1.2071 16.793C1.10677 16.6927 1.02718 16.5736 0.972878 16.4425C0.918579 16.3114 0.890625 16.1709 0.890625 16.029V1.97098Z" stroke="white" stroke-width="1.5" stroke-linecap="round" stroke-linejoin="round"/>
<path d="M4.13281 12.7757L6.62622 9.45113C6.72068 9.32729 6.84053 9.22509 6.97774 9.15137C7.11494 9.07764 7.26631 9.03412 7.42172 9.02371C7.57595 9.014 7.73052 9.03641 7.87563 9.08955C8.02074 9.14269 8.15323 9.22541 8.26472 9.33243L9.00089 10.0805L11.3756 6.91026C11.4776 6.77643 11.6085 6.66739 11.7586 6.59132C11.9087 6.51524 12.074 6.4741 12.2423 6.47095C12.411 6.4714 12.5773 6.51137 12.7278 6.58766C12.8784 6.66395 13.0089 6.77443 13.1091 6.91026L15.0325 9.4749" stroke="white" stroke-width="1.5" stroke-linecap="round" stroke-linejoin="round"/>
<path d="M4.95124 6.29284C5.21894 6.29284 5.48062 6.21344 5.70321 6.06471C5.9258 5.91598 6.09932 5.70457 6.20176 5.45724C6.30421 5.20991 6.33099 4.93775 6.27876 4.67519C6.22653 4.41262 6.09764 4.17146 5.90834 3.98216C5.71904 3.79286 5.47784 3.66393 5.21528 3.6117C4.95271 3.55947 4.68056 3.58629 4.43323 3.68873C4.18589 3.79118 3.97452 3.96466 3.82579 4.18725C3.67706 4.40984 3.59766 4.67155 3.59766 4.93926C3.59766 5.29825 3.74026 5.64252 3.9941 5.89636C4.24794 6.15021 4.59225 6.29284 4.95124 6.29284Z" stroke="white" stroke-width="1.5" stroke-linecap="round" stroke-linejoin="round"/>
<path d="M0.890625 12.7758H17.1096" stroke="white" stroke-width="1.5" stroke-linecap="round" stroke-linejoin="round"/>
</svg>
