<svg width="20" height="20" viewBox="0 0 20 20" fill="none" xmlns="http://www.w3.org/2000/svg">
<path d="M13.8238 10.7046L7.98125 13.6258C7.73583 13.7525 7.44292 13.7367 7.21333 13.5942C6.97583 13.4517 6.83333 13.1983 6.83333 12.9213V7.07875C6.83333 6.80167 6.97583 6.54833 7.20542 6.40583C7.435 6.26333 7.72792 6.2475 7.97333 6.37417L13.8158 9.29542C14.085 9.43 14.2592 9.70708 14.2592 10.0079C14.2671 10.3008 14.0929 10.5779 13.8238 10.7046ZM10 0.5C4.75125 0.5 0.5 4.75125 0.5 10C0.5 15.2488 4.75125 19.5 10 19.5C15.2488 19.5 19.5 15.2488 19.5 10C19.4921 4.75917 15.2408 0.507917 10 0.5Z" fill="#4B73FF"/>
</svg>
