<svg width="24" height="24" viewBox="0 0 24 24" fill="none" xmlns="http://www.w3.org/2000/svg">
<path d="M12 21C13.78 21 15.5201 20.4722 17.0001 19.4832C18.4802 18.4943 19.6337 17.0887 20.3149 15.4442C20.9961 13.7996 21.1743 11.99 20.8271 10.2442C20.4798 8.49837 19.6226 6.89472 18.364 5.63605C17.1053 4.37737 15.5016 3.5202 13.7558 3.17293C12.01 2.82567 10.2004 3.0039 8.55585 3.68509C6.91131 4.36628 5.50571 5.51982 4.51677 6.99986C3.52784 8.47991 3 10.22 3 12C3 14.387 3.94821 16.6761 5.63604 18.364C7.32387 20.0518 9.61305 21 12 21V21Z" stroke="white" stroke-width="1.5" stroke-linecap="round" stroke-linejoin="round"/>
<path d="M15.3234 10.8076L10.724 8.17987C10.5444 8.05898 10.3399 7.99685 10.1323 8.00012C9.92471 8.0034 9.72176 8.07195 9.54507 8.19846C9.36838 8.32497 9.22457 8.50472 9.12896 8.71855C9.03335 8.93238 8.98951 9.17228 9.00212 9.41273V14.5872C8.9919 14.8273 9.03677 15.0663 9.13216 15.2797C9.22754 15.4931 9.37001 15.6733 9.54505 15.802C9.72209 15.9297 9.92607 15.9982 10.1345 16C10.3393 15.9925 10.5403 15.9342 10.724 15.829L15.3234 13.1293C15.5232 13.0363 15.6944 12.876 15.815 12.6691C15.9356 12.4622 16 12.2182 16 11.9684C16 11.7187 15.9356 11.4746 15.815 11.2678C15.6944 11.0609 15.5232 10.9006 15.3234 10.8076Z" fill="white"/>
</svg>
