<svg width="24" height="24" viewBox="0 0 24 24" fill="none" xmlns="http://www.w3.org/2000/svg">
<path d="M8.83969 4.73161C7.9635 4.69103 7.08808 4.82721 6.2656 5.13201C5.44313 5.43681 4.6904 5.90399 4.05225 6.50577C3.4141 7.10755 2.90359 7.83161 2.5511 8.6348C2.19862 9.43799 2.01136 10.3039 2.0005 11.181C1.98964 12.058 2.1554 12.9283 2.4879 13.74C2.8204 14.5517 3.31284 15.2881 3.9359 15.9055C4.55896 16.5229 5.2999 17.0086 6.11457 17.3336C6.92925 17.6587 7.80103 17.8165 8.67796 17.7976H9.38445V20.9045C9.38248 20.989 9.40571 21.0722 9.45119 21.1435C9.49667 21.2147 9.56235 21.2708 9.63983 21.3046C9.71928 21.3354 9.80601 21.3422 9.88926 21.324C9.97251 21.3058 10.0486 21.2636 10.108 21.2025L13.3766 17.8402H15.2237C16.3138 17.8548 17.3901 17.5963 18.3545 17.0881C19.3189 16.58 20.1408 15.8385 20.7451 14.9312C21.3494 14.0239 21.7168 12.9798 21.814 11.894C21.9112 10.8082 21.7349 9.71542 21.3014 8.71525" stroke="white" stroke-width="1.5" stroke-miterlimit="10" stroke-linecap="round"/>
<path d="M10.3731 12.5295C10.5831 12.5341 10.792 12.4967 10.9875 12.4197C11.1829 12.3427 11.3611 12.2276 11.5117 12.081C11.6622 11.9344 11.782 11.7594 11.8642 11.566C11.9464 11.3727 11.9893 11.1649 11.9904 10.9548C11.9954 10.638 11.9063 10.3268 11.7343 10.0607C11.5623 9.7946 11.3152 9.58554 11.0242 9.46002C10.7333 9.3345 10.4117 9.29818 10.1001 9.35564C9.78847 9.41311 9.50095 9.56176 9.27393 9.78281C9.04692 10.0038 8.89063 10.2873 8.82487 10.5973C8.75912 10.9072 8.78688 11.2297 8.90459 11.5239C9.02231 11.8181 9.22471 12.0707 9.48614 12.2497C9.74757 12.4287 10.0563 12.5261 10.3731 12.5295V12.5295Z" stroke="white" stroke-width="1.5" stroke-linecap="round" stroke-linejoin="round"/>
<path d="M16.7818 10.6564C17.099 10.6614 17.4105 10.5721 17.6768 10.3998C17.9431 10.2274 18.1522 9.97978 18.2775 9.68835C18.4028 9.39692 18.4386 9.07483 18.3805 8.76298C18.3223 8.45114 18.1728 8.16361 17.9509 7.93692C17.729 7.71023 17.4447 7.55461 17.1342 7.48981C16.8237 7.42501 16.5009 7.45393 16.2069 7.57296C15.9128 7.69198 15.6608 7.89573 15.4828 8.15829C15.3048 8.42086 15.2088 8.7304 15.2071 9.04761C15.2048 9.46911 15.3689 9.87451 15.6637 10.1757C15.9585 10.477 16.3603 10.6497 16.7818 10.6564V10.6564Z" stroke="white" stroke-width="1.5" stroke-linecap="round" stroke-linejoin="round"/>
<path d="M11.9902 10.9201L12.0583 5.28513C12.0591 5.02171 12.1413 4.76497 12.2937 4.55009C12.4461 4.33522 12.6612 4.17274 12.9096 4.08493L16.757 3.06349C16.9495 2.99996 17.1544 2.9838 17.3545 3.0164C17.5545 3.049 17.7438 3.12941 17.9061 3.25076C18.0677 3.37273 18.1982 3.53113 18.2869 3.71307C18.3757 3.89501 18.4202 4.09532 18.4169 4.29773L18.3658 9.08154" stroke="white" stroke-width="1.5" stroke-linecap="round" stroke-linejoin="round"/>
</svg>
