<svg width="21" height="21" viewBox="0 0 21 21" fill="none" xmlns="http://www.w3.org/2000/svg">
<path d="M8.98501 2.38777C9.13857 2.5506 9.3238 2.6803 9.52931 2.76897C9.73481 2.85764 9.95627 2.90332 10.1801 2.90332C10.4039 2.90332 10.6254 2.85764 10.8309 2.76897C11.0364 2.6803 11.2216 2.5506 11.3751 2.38777L12.1472 1.56642C12.3769 1.33807 12.669 1.18267 12.9868 1.11985C13.3045 1.05703 13.6337 1.08953 13.933 1.2133C14.2324 1.33706 14.4884 1.5466 14.669 1.81547C14.8496 2.08435 14.9467 2.40056 14.948 2.72445L14.8905 3.87437C14.8816 4.0982 14.9185 4.32154 14.999 4.53058C15.0795 4.73963 15.2019 4.92996 15.3587 5.08995C15.5187 5.24675 15.7091 5.36918 15.9181 5.44969C16.1272 5.5302 16.3505 5.56715 16.5743 5.55818L17.7242 5.50063C18.0481 5.50199 18.3644 5.59906 18.6332 5.77966C18.9021 5.96025 19.1116 6.21637 19.2354 6.51568C19.3591 6.815 19.3916 7.14422 19.3288 7.46196C19.266 7.77971 19.1107 8.07176 18.8823 8.30146L18.061 9.07348C17.8981 9.22705 17.7684 9.4123 17.6797 9.61781C17.5911 9.82331 17.5453 10.0448 17.5453 10.2686C17.5453 10.4924 17.5911 10.7139 17.6797 10.9194C17.7684 11.1249 17.8981 11.3101 18.061 11.4636L18.8823 12.2358C19.1107 12.4655 19.266 12.7575 19.3288 13.0753C19.3916 13.393 19.3591 13.7222 19.2354 14.0215C19.1116 14.3209 18.9021 14.5769 18.6332 14.7575C18.3644 14.9381 18.0481 15.0351 17.7242 15.0365L16.5743 14.9791C16.3505 14.9701 16.1272 15.007 15.9181 15.0875C15.7091 15.168 15.5187 15.2904 15.3587 15.4472C15.1975 15.6057 15.0723 15.797 14.9915 16.0081C14.9107 16.2193 14.8763 16.4454 14.8905 16.671L14.948 17.8209C14.9467 18.1448 14.8496 18.4611 14.669 18.73C14.4884 18.9988 14.2324 19.2083 13.933 19.3321C13.6337 19.4558 13.3045 19.4883 12.9868 19.4255C12.669 19.3627 12.3769 19.2074 12.1472 18.979L11.3751 18.1577C11.2217 17.9961 11.037 17.8675 10.8322 17.7796C10.6275 17.6917 10.407 17.6463 10.1842 17.6463C9.96139 17.6463 9.74089 17.6917 9.53615 17.7796C9.33141 17.8675 9.14669 17.9961 8.99323 18.1577L8.21294 18.979C7.98323 19.2074 7.69116 19.3627 7.37341 19.4255C7.05567 19.4883 6.72645 19.4558 6.42713 19.3321C6.12782 19.2083 5.87178 18.9988 5.69118 18.73C5.51059 18.4611 5.41351 18.1448 5.41215 17.8209L5.47785 16.671C5.48796 16.4458 5.45161 16.221 5.37107 16.0105C5.29052 15.7999 5.1675 15.6081 5.00967 15.4472C4.84872 15.2893 4.65701 15.1664 4.44647 15.0858C4.23593 15.0053 4.01106 14.9689 3.78587 14.9791L2.63598 15.0365C2.31306 15.0352 1.99769 14.9387 1.7293 14.7592C1.46091 14.5796 1.2514 14.3249 1.12695 14.027C1.0025 13.729 0.968644 13.4009 1.0296 13.0838C1.09055 12.7667 1.2436 12.4746 1.46965 12.244L2.33208 11.4719C2.49723 11.3187 2.62912 11.1332 2.71955 10.9269C2.80998 10.7206 2.85701 10.498 2.85773 10.2727C2.85589 10.0489 2.80831 9.82772 2.71792 9.62292C2.62752 9.41812 2.49623 9.23392 2.33208 9.0817L1.46965 8.26035C1.24407 8.03025 1.09115 7.73892 1.02992 7.42256C0.968696 7.1062 1.00188 6.77885 1.12532 6.48119C1.24876 6.18354 1.45702 5.92876 1.72417 5.74857C1.99131 5.56839 2.30554 5.47077 2.62776 5.46784L3.77764 5.52529C4.00284 5.5354 4.22771 5.49905 4.43825 5.41851C4.64879 5.33797 4.84052 5.21499 5.00147 5.05716C5.15931 4.89621 5.2823 4.70443 5.36285 4.49389C5.44339 4.28335 5.47974 4.05845 5.46963 3.83326L5.41215 2.68345C5.40021 2.35222 5.48872 2.02507 5.66609 1.74509C5.84346 1.4651 6.1014 1.24534 6.40598 1.11464C6.71352 0.993305 7.0505 0.967574 7.37289 1.04084C7.69527 1.11411 7.98805 1.28297 8.21294 1.52531L8.98501 2.38777Z" stroke="white" stroke-width="1.5" stroke-linecap="round" stroke-linejoin="round"/>
<path d="M10.1766 13.9439C10.9076 13.9439 11.6222 13.7271 12.23 13.321C12.8378 12.9149 13.3116 12.3376 13.5913 11.6623C13.8711 10.9869 13.9442 10.2437 13.8016 9.52678C13.659 8.80981 13.307 8.15123 12.7901 7.63432C12.2732 7.11742 11.6146 6.76539 10.8976 6.62277C10.1807 6.48016 9.4375 6.55338 8.76213 6.83312C8.08676 7.11287 7.50952 7.58657 7.10338 8.19439C6.69725 8.80221 6.48048 9.51685 6.48048 10.2479C6.4794 10.7335 6.57425 11.2147 6.75961 11.6636C6.94497 12.1125 7.2172 12.5204 7.56063 12.8638C7.90406 13.2072 8.31193 13.4795 8.76085 13.6648C9.20977 13.8502 9.69088 13.945 10.1766 13.9439Z" stroke="white" stroke-width="1.5" stroke-linecap="round" stroke-linejoin="round"/>
</svg>
