<svg width="25" height="24" viewBox="0 0 25 24" fill="none" xmlns="http://www.w3.org/2000/svg">
<path d="M17.0132 15.046C16.6039 15.0463 16.1989 15.1273 15.8223 15.2841C15.4458 15.441 15.1054 15.6705 14.8217 15.9589C14.7757 15.8372 14.6863 15.7357 14.57 15.6731L9.18038 12.8234C9.09815 12.7801 9.00591 12.7582 8.91253 12.7599C9.03218 12.4392 9.09529 12.101 9.0992 11.7597C9.0968 11.5837 9.07778 11.4084 9.04238 11.2358C9.08799 11.244 9.13477 11.244 9.18038 11.2358L14.57 8.38607C14.6863 8.3235 14.7757 8.22204 14.8217 8.10029C15.3699 8.65376 16.1112 8.98491 16.898 9.02772C17.6847 9.07053 18.4591 8.82187 19.0667 8.3313C19.6743 7.84073 20.0706 7.14426 20.1767 6.38069C20.2827 5.61713 20.0907 4.84252 19.6388 4.21124C19.187 3.57996 18.5085 3.13836 17.7385 2.97444C16.9686 2.81051 16.1639 2.9363 15.4845 3.32674C14.8052 3.71718 14.3013 4.34361 14.0731 5.08118C13.845 5.81874 13.9094 6.61328 14.2535 7.30649C14.1601 7.30482 14.0679 7.3267 13.9856 7.37001L8.59596 10.1483C8.25027 9.61677 7.74148 9.20582 7.14242 8.9743C6.54336 8.74278 5.88475 8.70255 5.26089 8.85938C4.63704 9.01621 4.07991 9.36207 3.66929 9.84741C3.25866 10.3328 3.01558 10.9327 2.97486 11.5614C2.93413 12.1901 3.09786 12.8152 3.44258 13.3474C3.7873 13.8795 4.29533 14.2914 4.89396 14.5239C5.4926 14.7565 6.15112 14.7979 6.77527 14.6421C7.39941 14.4864 7.95717 14.1415 8.36868 13.6569C8.42002 13.7468 8.49588 13.821 8.58783 13.8712L13.9694 16.721C14.0543 16.7569 14.1449 16.7784 14.2372 16.7845C14.0516 17.1721 13.9547 17.5947 13.9531 18.0228C13.9531 18.6115 14.1317 19.1871 14.4661 19.6766C14.8006 20.1661 15.276 20.5476 15.8322 20.7729C16.3884 20.9982 17.0004 21.0572 17.5908 20.9423C18.1813 20.8275 18.7236 20.544 19.1493 20.1277C19.575 19.7114 19.8649 19.181 19.9824 18.6035C20.0998 18.0261 20.0395 17.4276 19.8092 16.8836C19.5788 16.3397 19.1886 15.8748 18.6881 15.5477C18.1875 15.2206 17.599 15.046 16.997 15.046H17.0132Z" fill="white"/>
</svg>
