<svg width="53" height="53" viewBox="0 0 53 53" fill="none" xmlns="http://www.w3.org/2000/svg">
<path d="M26.3947 0C11.8176 0 0 11.8173 0 26.3943C0 40.972 11.8176 52.7884 26.3947 52.7884C40.9733 52.7884 52.7896 40.972 52.7896 26.3943C52.7896 11.8182 40.9736 0 26.3947 0ZM38.4991 38.0682C38.0263 38.8436 37.0114 39.0894 36.236 38.6135C30.0388 34.8281 22.2373 33.9708 13.0497 36.0699C12.1643 36.2717 11.2818 35.7169 11.0801 34.8312C10.8774 33.9456 11.4299 33.0631 12.3175 32.8613C22.3719 30.5643 30.9964 31.5533 37.9538 35.8052C38.7292 36.2811 38.975 37.2929 38.4991 38.0682ZM41.7297 30.8813C41.134 31.8496 39.867 32.1553 38.8994 31.5596C31.8045 27.1987 20.9895 25.9357 12.5977 28.4831C11.5093 28.8118 10.3599 28.1985 10.0295 27.112C9.70175 26.0237 10.3154 24.8764 11.4019 24.5455C20.9876 21.6369 32.9045 23.0458 41.0521 28.0525C42.0197 28.6482 42.3254 29.915 41.7297 30.8813ZM42.0071 23.3975C33.5002 18.3448 19.465 17.8802 11.3429 20.3453C10.0387 20.7408 8.65943 20.0046 8.26419 18.7003C7.86894 17.3955 8.60459 16.0171 9.90977 15.6206C19.2333 12.7903 34.7326 13.3371 44.5267 19.1514C45.7023 19.8476 46.0869 21.3627 45.3903 22.5343C44.6969 23.7074 43.1764 24.0941 42.0071 23.3975Z" fill="#F5F5F5"/>
</svg>
