<svg width="46" height="46" viewBox="0 0 46 46" fill="none" xmlns="http://www.w3.org/2000/svg">
<path d="M22.9999 0C10.2977 0 0 10.2974 0 22.9996C0 35.7023 10.2977 45.9989 22.9999 45.9989C35.7034 45.9989 46 35.7023 46 22.9996C46 10.2982 35.7037 0 22.9999 0ZM33.5475 33.172C33.1355 33.8476 32.2511 34.0619 31.5755 33.6472C26.1753 30.3486 19.3773 29.6016 11.3713 31.4307C10.5998 31.6065 9.83076 31.1231 9.65498 30.3514C9.47838 29.5796 9.95984 28.8106 10.7333 28.6348C19.4945 26.6332 27.0097 27.495 33.0723 31.2C33.7479 31.6148 33.9622 32.4964 33.5475 33.172ZM36.3626 26.9095C35.8435 27.7532 34.7394 28.0196 33.8963 27.5005C27.7139 23.7005 18.2899 22.6 10.9774 24.8197C10.0291 25.1061 9.02741 24.5717 8.73958 23.625C8.45395 22.6766 8.98869 21.6769 9.9354 21.3885C18.2883 18.8541 28.6724 20.0817 35.7721 24.4445C36.6153 24.9636 36.8817 26.0674 36.3626 26.9095ZM36.6043 20.3882C29.1915 15.9854 16.9614 15.5805 9.88404 17.7285C8.74755 18.0732 7.54568 17.4316 7.20128 16.2952C6.85687 15.1581 7.4979 13.9571 8.63521 13.6116C16.7596 11.1452 30.2654 11.6217 38.7998 16.6882C39.8243 17.2949 40.1593 18.6151 39.5524 19.636C38.9481 20.6582 37.6232 20.9952 36.6043 20.3882Z" fill="#1ED760"/>
</svg>
