<?xml version="1.0" encoding="utf-8"?>
<!-- Generator: Adobe Illustrator 23.0.3, SVG Export Plug-In . SVG Version: 6.00 Build 0)  -->
<svg version="1.1" id="Layer_1" xmlns="http://www.w3.org/2000/svg" xmlns:xlink="http://www.w3.org/1999/xlink" x="0px" y="0px"
	 viewBox="0 0 53 53" style="enable-background:new 0 0 53 53;" xml:space="preserve">
<style type="text/css">
	.st0{opacity:0.5;fill:#F5F5F5;}
</style>
<path class="st0" d="M26.4,0C11.8,0,0,11.8,0,26.4C0,41,11.8,52.8,26.4,52.8C41,52.8,52.8,41,52.8,26.4C52.8,11.8,41,0,26.4,0z
	 M38.5,38.1c-0.5,0.8-1.5,1-2.3,0.5C30,34.8,22.2,34,13,36.1c-0.9,0.2-1.8-0.4-2-1.2c-0.2-0.9,0.3-1.8,1.2-2
	C22.4,30.6,31,31.6,38,35.8C38.7,36.3,39,37.3,38.5,38.1z M41.7,30.9c-0.6,1-1.9,1.3-2.8,0.7c-7.1-4.4-17.9-5.6-26.3-3.1
	c-1.1,0.3-2.2-0.3-2.6-1.4c-0.3-1.1,0.3-2.2,1.4-2.6c9.6-2.9,21.5-1.5,29.7,3.5C42,28.6,42.3,29.9,41.7,30.9z M42,23.4
	c-8.5-5.1-22.5-5.5-30.7-3.1C10,20.7,8.7,20,8.3,18.7c-0.4-1.3,0.3-2.7,1.6-3.1c9.3-2.8,24.8-2.3,34.6,3.5c1.2,0.7,1.6,2.2,0.9,3.4
	C44.7,23.7,43.2,24.1,42,23.4z"/>
</svg>
