<svg width="24" height="24" viewBox="0 0 24 24" fill="none" xmlns="http://www.w3.org/2000/svg">
<path d="M15.5724 13.7217C15.7683 15.0968 15.5397 16.499 14.9171 17.7406C14.2945 18.9823 13.3077 20.0042 12.0886 20.6698C10.8694 21.3354 9.47613 21.6129 8.09502 21.4652C6.7139 21.3175 5.41079 20.7516 4.35999 19.8433C3.30919 18.9349 2.56081 17.7274 2.21489 16.3821C1.86897 15.0369 1.94203 13.6181 2.4243 12.3156C2.90657 11.013 3.77504 9.8887 4.91358 9.09307C6.05213 8.29745 7.40646 7.86842 8.79544 7.86336C9.17271 7.86155 9.54951 7.89054 9.92206 7.95003" stroke="white" stroke-width="1.5" stroke-linecap="round" stroke-linejoin="round"/>
<path d="M8.82122 16.9627C9.27201 16.9627 9.71267 16.829 10.0875 16.5786C10.4623 16.3282 10.7544 15.9722 10.9269 15.5557C11.0995 15.1393 11.1446 14.681 11.0566 14.2389C10.9687 13.7967 10.7516 13.3906 10.4329 13.0719C10.1141 12.7531 9.708 12.536 9.26588 12.4481C8.82376 12.3601 8.36549 12.4053 7.94902 12.5778C7.53255 12.7503 7.17657 13.0424 6.92613 13.4172C6.67568 13.7921 6.54201 14.2327 6.54201 14.6835C6.54086 14.9831 6.59904 15.28 6.71317 15.5571C6.82731 15.8341 6.99515 16.0858 7.20702 16.2977C7.41889 16.5096 7.6706 16.6774 7.94765 16.7916C8.22469 16.9057 8.52159 16.9639 8.82122 16.9627V16.9627Z" stroke="white" stroke-width="1.5" stroke-linecap="round" stroke-linejoin="round"/>
<path d="M13.3714 11.9089C13.6937 11.9089 14.0087 11.8133 14.2766 11.6343C14.5445 11.4553 14.7534 11.2008 14.8767 10.9031C15 10.6054 15.0322 10.2778 14.9694 9.96177C14.9065 9.64573 14.7514 9.35543 14.5235 9.12757C14.2956 8.89972 14.0053 8.74457 13.6893 8.6817C13.3733 8.61884 13.0457 8.65108 12.7479 8.7744C12.4502 8.89771 12.1958 9.10653 12.0168 9.37446C11.8377 9.64239 11.7422 9.9574 11.7422 10.2796C11.7422 10.7117 11.9139 11.1261 12.2194 11.4317C12.5249 11.7372 12.9393 11.9089 13.3714 11.9089V11.9089Z" stroke="white" stroke-width="1.5" stroke-linecap="round" stroke-linejoin="round"/>
<path d="M19.8705 9.96159C20.1927 9.96159 20.5077 9.86604 20.7756 9.68702C21.0435 9.508 21.2524 9.25354 21.3757 8.95584C21.499 8.65813 21.5313 8.33055 21.4684 8.0145C21.4055 7.69846 21.2504 7.40816 21.0225 7.18031C20.7947 6.95245 20.5044 6.7973 20.1883 6.73444C19.8723 6.67157 19.5447 6.70382 19.247 6.82713C18.9493 6.95045 18.6948 7.15926 18.5158 7.42719C18.3368 7.69512 18.2412 8.01014 18.2412 8.33237C18.2412 8.76447 18.4129 9.17887 18.7184 9.48441C19.024 9.78995 19.4384 9.96159 19.8705 9.96159V9.96159Z" stroke="white" stroke-width="1.5" stroke-linecap="round" stroke-linejoin="round"/>
<path d="M14.9923 10.2813V4.39692C14.9894 4.12577 15.0714 3.86053 15.2268 3.63831C15.3822 3.41609 15.6032 3.24803 15.8589 3.15766L19.7587 2.07439C19.9558 2.00466 20.1669 1.98352 20.374 2.01279C20.5811 2.04206 20.778 2.12088 20.9481 2.24251C21.1182 2.36414 21.2565 2.52502 21.3512 2.7115C21.4459 2.89797 21.4941 3.10453 21.4919 3.31365V8.33138" stroke="white" stroke-width="1.5" stroke-linecap="round" stroke-linejoin="round"/>
</svg>
