<svg width="24" height="24" viewBox="0 0 24 24" fill="none" xmlns="http://www.w3.org/2000/svg">
<path d="M11.208 9.40048C11.1559 9.42137 11.0889 9.4144 11.0368 9.37958C10.9847 9.35173 10.9549 9.29601 10.9549 9.2403V8.48119C10.9549 8.3419 11.0442 8.20958 11.1856 8.16083L16.7683 6.0228C16.88 5.98101 17.014 5.98798 17.1182 6.05762C17.2224 6.1203 17.282 6.23173 17.282 6.35012V6.96298C17.282 7.03262 17.2373 7.0953 17.1629 7.12315L11.208 9.40048ZM19.1429 5.57012C19.1429 5.0478 18.8674 4.5603 18.3985 4.2678C17.937 3.9753 17.3489 3.91958 16.8353 4.11458L10.1361 6.67744C9.50338 6.92119 9.09398 7.49923 9.09398 8.13298V14.9719C9.09398 15.0694 9.0121 15.146 8.90789 15.146H7.97744C6.33241 15.146 5 16.3926 5 17.9317C5 19.4708 6.33241 20.7174 7.97744 20.7174C9.60759 20.6826 10.9177 19.4569 10.9549 17.9317V11.4967C10.9549 11.4271 10.9995 11.3644 11.0665 11.3365L17.0214 9.05923C17.081 9.03833 17.1405 9.0453 17.1926 9.07315C17.2447 9.10798 17.2745 9.15673 17.2745 9.2194V12.1932C17.2745 12.2907 17.1926 12.3673 17.0884 12.3673H16.1654C14.5204 12.3673 13.188 13.6139 13.188 15.153C13.188 16.6921 14.5204 17.9387 16.1654 17.9387C17.7956 17.9039 19.1056 16.6782 19.1429 15.153V5.57012Z" fill="#E598ED"/>
</svg>
